# Blender 3.5.1
# www.blender.org
mtllib low_lags_R.mtl
o Meowth
v 0.786753 -10.947598 2.133392
v -0.054357 -11.045547 1.795260
v 2.522663 -11.404828 1.061411
v 2.619883 -11.369748 -0.039708
v -1.000037 -11.369748 -0.039708
v -0.949187 -11.404828 1.061411
v 1.674453 -11.029617 1.896956
v -0.322897 -10.567528 1.182429
v 0.786753 -10.624988 1.668904
v 0.786753 -11.182268 -1.922218
v -0.600467 -11.335788 -1.314288
v 0.786753 -10.228878 -1.197758
v -0.290207 -10.334438 -0.708858
v -0.650287 -10.449087 0.218112
v 1.848183 -10.567528 1.169021
v 2.260563 -10.449087 0.220322
v 1.848293 -10.334438 -0.751228
v 2.219333 -11.335788 -1.314298
v -0.173947 -8.939628 1.770749
v 0.826863 -8.993368 2.183732
v 0.826863 -8.732998 -0.765078
v -0.156127 -8.786418 -0.270458
v -0.554787 -8.861778 0.694924
v 1.779193 -8.939628 1.717694
v 1.764413 -8.786418 -0.298198
v 2.161233 -8.861778 0.694923
v 0.813623 -8.007547 2.312662
v -0.207837 -7.954008 1.899660
v 0.813623 -7.747488 -0.636168
v -0.190017 -7.800968 -0.141568
v -0.588677 -7.876248 0.823827
v 1.784343 -7.954008 1.790435
v 1.769553 -7.800968 -0.169288
v 2.166383 -7.876248 0.823834
vn 0.0116 -0.0149 -0.9998
vn 0.0014 0.2165 -0.9763
vn -0.7345 0.1546 -0.6608
vn -0.7421 -0.0618 -0.6675
vn -0.0150 0.4608 -0.8874
vn -0.7069 0.3956 -0.5864
vn -0.9999 0.0138 -0.0073
vn -0.9599 0.2774 -0.0408
vn -0.9983 -0.0585 0.0008
vn -0.7476 0.2458 0.6170
vn -0.7047 -0.1486 0.6938
vn -0.7011 -0.0475 0.7115
vn -0.0150 0.3832 0.9236
vn 0.0499 -0.0106 0.9987
vn 0.0405 -0.2087 0.9771
vn 0.7386 0.0309 0.6735
vn 0.7391 0.2828 0.6114
vn 0.7215 -0.1301 0.6801
vn 0.9597 0.2805 -0.0184
vn 0.9998 0.0163 0.0136
vn 0.9990 0.0341 0.0286
vn 0.6854 0.3971 -0.6104
vn 0.7376 0.1605 -0.6559
vn 0.7520 0.0213 -0.6588
vn -0.0223 0.9730 0.2299
vn 0.3625 0.8980 0.2492
vn 0.8595 0.4818 0.1706
vn 0.9367 0.3265 -0.1261
vn 0.7143 0.3899 -0.5812
vn -0.0013 0.5194 -0.8545
vn -0.7114 0.4147 -0.5674
vn -0.9359 0.3236 -0.1394
vn -0.8617 0.4820 0.1586
vn -0.3724 0.8737 0.3131
vt 0.564392 0.085938
vt 0.368658 0.085938
vt 0.376967 0.066306
vt 0.540879 0.045002
vt 0.518509 0.042971
vt 0.414416 0.043070
vt 0.392006 0.045198
vt 0.558026 0.065393
vt 0.135343 0.562500
vt 0.391363 0.064844
vt 0.110680 0.562500
vt 0.548734 0.085938
vt 0.384315 0.085938
vt 0.465571 0.041589
vt 0.439200 0.040319
vt 0.209330 0.562500
vt 0.008505 0.562500
vt 0.465350 0.064844
vt 0.181144 0.562500
vt 0.437165 0.064844
vt 0.156482 0.562500
vt 0.412502 0.064844
vt 0.086016 0.562500
vt 0.542861 0.064844
vt 0.064877 0.562500
vt 0.521722 0.064844
vt 0.036692 0.562500
vt 0.493537 0.064844
vt 0.493052 0.040335
vt 0.132068 0.600936
vt 0.110680 0.600750
vt 0.209330 0.598625
vt 0.008507 0.598625
vt 0.181695 0.598614
vt 0.156576 0.599629
vt 0.088676 0.600244
vt 0.037209 0.598227
vt 0.064380 0.598991
vt 0.110680 0.620652
vt 0.132454 0.622060
vt 0.209330 0.621607
vt 0.008507 0.621608
vt 0.181593 0.622494
vt 0.156877 0.622600
vt 0.087916 0.620741
vt 0.037780 0.621854
vt 0.064642 0.621311
s 1
usemtl Body00.013
f 29/41/1 21/32/2 22/34/3
f 29/41/1 22/34/3 30/43/4
f 21/32/2 12/16/5 13/19/6
f 21/32/2 13/19/6 22/34/3
f 30/43/4 22/34/3 23/35/7
f 13/19/6 14/21/8 22/34/3
f 22/34/3 14/21/8 23/35/7
f 30/43/4 23/35/7 31/44/9
f 14/21/8 8/9/10 23/35/7
f 31/44/9 23/35/7 19/30/11
f 23/35/7 8/9/10 19/30/11
f 31/44/9 19/30/11 28/40/12
f 8/9/10 9/11/13 19/30/11
f 28/40/12 19/30/11 27/39/14
f 9/11/13 20/31/15 19/30/11
f 19/30/11 20/31/15 27/39/14
f 27/39/14 20/31/15 32/45/16
f 9/11/13 15/23/17 24/36/18
f 20/31/15 9/11/13 24/36/18
f 20/31/15 24/36/18 32/45/16
f 15/23/17 16/25/19 26/38/20
f 15/23/17 26/38/20 24/36/18
f 24/36/18 26/38/20 34/47/21
f 24/36/18 34/47/21 32/45/16
f 16/25/19 17/27/22 25/37/23
f 16/25/19 25/37/23 26/38/20
f 34/47/21 26/38/20 33/46/24
f 26/38/20 25/37/23 33/46/24
f 17/27/22 12/17/5 21/33/2
f 17/27/22 21/33/2 25/37/23
f 33/46/24 25/37/23 29/42/1
f 25/37/23 21/33/2 29/42/1
f 1/1/25 7/8/26 9/12/13
f 9/12/13 7/8/26 15/24/17
f 7/8/26 3/4/27 15/24/17
f 15/24/17 3/4/27 16/26/19
f 3/4/27 4/5/28 16/26/19
f 16/26/19 4/5/28 17/28/22
f 4/5/28 18/29/29 17/28/22
f 17/28/22 10/14/30 12/18/5
f 17/28/22 18/29/29 10/14/30
f 12/18/5 10/14/30 11/15/31
f 12/18/5 11/15/31 13/20/6
f 13/20/6 11/15/31 5/6/32
f 13/20/6 5/6/32 14/22/8
f 14/22/8 5/6/32 6/7/33
f 14/22/8 6/7/33 8/10/10
f 8/10/10 2/3/34 9/13/13
f 8/10/10 6/7/33 2/3/34
f 9/13/13 2/3/34 1/2/25
