# Blender 3.5.1
# www.blender.org
mtllib low_arms_L.mtl
o Meowth.001
v -22.050854 5.140226 -0.933444
v -22.050854 4.206627 -0.483674
v -22.852757 3.713926 0.694173
v -23.135956 5.040827 2.557334
v -23.135956 6.079527 2.146245
v -23.135956 6.564226 0.692991
v -23.135956 6.079527 -0.759085
v -23.135956 5.040827 -1.170164
v -23.135956 4.135626 2.146246
v -23.135956 4.135626 -0.759084
v -19.049656 6.112526 1.964926
v -20.974857 6.117925 1.997365
v -19.049656 5.172226 2.345614
v -20.974857 5.169327 2.378046
v -19.046656 6.526827 0.699695
v -20.973656 6.544126 0.694806
v -20.974857 6.117925 -0.385005
v -19.049856 6.112526 -0.342755
v -20.974857 5.169327 -0.845664
v -19.049856 5.172226 -0.803384
v -19.049856 4.250425 -0.342854
v -20.974857 4.234627 -0.385164
v -19.046656 3.817627 0.699696
v -20.973656 3.794426 0.694808
v -20.974857 4.234627 1.994066
v -19.049656 4.250425 1.961636
v -17.090157 6.106025 1.925484
v -17.090157 5.175726 2.306175
v -17.084856 6.505626 0.705637
v -17.090456 6.106127 -0.291395
v -17.090456 5.175726 -0.751984
v -17.090456 4.269726 -0.291414
v -17.084856 3.845827 0.705639
v -17.090157 4.269726 1.922196
v -16.029255 6.099726 1.895946
v -16.029255 5.176725 2.276634
v -16.029255 4.282825 1.892656
v -16.026855 3.860826 0.704349
v -16.029457 4.282825 -0.264334
v -16.029457 5.176725 -0.724904
v -16.029457 6.099726 -0.264335
v -16.026756 6.491627 0.709891
v -22.050854 6.111826 -0.483525
v -22.050655 6.555727 0.692396
v -21.989357 3.767326 0.692653
v -22.050854 6.111826 2.043015
v -22.050854 4.206627 2.040436
v -22.050854 5.140226 2.430295
vn 0.0932 -0.9956 -0.0069
vn 0.3625 -0.7754 -0.5170
vn 0.1365 -0.7468 -0.6509
vn 0.6652 -0.0478 -0.7451
vn 0.1616 -0.0031 -0.9869
vn 0.0323 -0.0061 -0.9995
vn 0.0278 -0.7302 -0.6827
vn 0.0241 -0.7317 -0.6812
vn 0.0270 -0.0050 -0.9996
vn 0.0183 -0.9992 -0.0356
vn 0.0163 -0.9993 -0.0331
vn 0.0271 -0.7307 0.6822
vn 0.0217 -0.7318 -0.6812
vn 0.0147 -0.9994 -0.0318
vn 0.0299 -0.0066 0.9995
vn 0.0245 0.7327 0.6801
vn 0.0193 0.7318 0.6812
vn 0.0232 -0.7301 0.6830
vn 0.0250 -0.0038 -0.9997
vn 0.0133 0.9994 -0.0308
vn 0.0127 0.9994 -0.0322
vn 0.0205 -0.9993 -0.0305
vn 0.0249 -0.0059 0.9997
vn 0.0464 -0.7370 -0.6743
vn 0.0220 0.7343 -0.6784
vn 0.0182 -0.7298 0.6834
vn 0.0145 0.7308 0.6825
vn 0.0559 -0.0004 -0.9984
vn 0.0103 0.9995 -0.0312
vn 0.0318 -0.7312 0.6815
vn 0.0193 -0.0049 0.9998
vn 0.0202 0.7348 -0.6780
vn 0.0494 -0.9985 -0.0241
vn 0.0190 0.7320 0.6810
vn 0.0102 0.9995 -0.0301
vn 0.0331 -0.0013 0.9995
vn 0.0827 -0.7379 0.6698
vn 0.0179 0.7339 -0.6790
vn 0.0112 0.9996 -0.0241
vn 0.0338 0.7332 0.6792
vn 0.0823 0.0006 0.9966
vn 0.3185 -0.7935 0.5186
vn 0.0343 0.7393 -0.6725
vn 0.3874 0.7283 0.5652
vn 0.6264 -0.0466 0.7781
vn 0.0894 0.7475 -0.6582
vn 0.0931 0.9956 -0.0055
vn 0.4306 0.7103 -0.5569
vt 0.149435 0.972672
vt 0.360829 0.972672
vt 0.173077 0.972602
vt 0.202283 0.992188
vt 0.255131 0.992188
vt 0.276271 0.992188
vt 0.307981 0.992188
vt 0.339689 0.992188
vt 0.149435 0.992188
vt 0.360829 0.992188
vt 0.233991 0.992188
vt 0.170575 0.992188
vt 0.278808 0.909667
vt 0.278445 0.949753
vt 0.255131 0.909667
vt 0.255131 0.949998
vt 0.309893 0.909667
vt 0.309498 0.949667
vt 0.336121 0.950060
vt 0.336192 0.909667
vt 0.149435 0.950452
vt 0.360829 0.950452
vt 0.149435 0.909667
vt 0.360829 0.909667
vt 0.173776 0.909667
vt 0.173769 0.950631
vt 0.200399 0.909667
vt 0.200820 0.950683
vt 0.232208 0.950277
vt 0.231734 0.909667
vt 0.279209 0.867330
vt 0.255131 0.867330
vt 0.310011 0.867330
vt 0.335837 0.867330
vt 0.149435 0.867330
vt 0.360829 0.867330
vt 0.174034 0.867330
vt 0.200255 0.867330
vt 0.231396 0.867330
vt 0.279487 0.844267
vt 0.255131 0.844267
vt 0.231165 0.844267
vt 0.200110 0.844267
vt 0.174126 0.844267
vt 0.149435 0.844267
vt 0.360829 0.844267
vt 0.335653 0.844267
vt 0.309983 0.844267
vt 0.336683 0.971927
vt 0.308909 0.971392
vt 0.201427 0.972454
vt 0.277920 0.971493
vt 0.232895 0.972243
vt 0.255131 0.971821
s 1
usemtl Body00.015
f 3/4/1 10/12/2 2/3/3
f 10/12/2 8/9/4 1/1/5
f 1/1/5 2/3/3 10/12/2
f 40/45/6 39/44/7 32/37/8
f 40/45/6 32/37/8 31/35/9
f 39/44/7 38/43/10 33/38/11
f 38/43/10 37/42/12 33/38/11
f 39/44/7 33/38/11 32/37/8
f 31/35/9 32/37/8 21/25/13
f 33/38/11 23/27/14 32/37/8
f 32/37/8 23/27/14 21/25/13
f 36/41/15 35/40/16 27/31/17
f 37/42/12 34/39/18 33/38/11
f 33/38/11 34/39/18 23/27/14
f 37/42/12 36/41/15 34/39/18
f 31/35/9 21/25/13 20/23/19
f 35/40/16 42/48/20 29/33/21
f 35/40/16 29/33/21 27/31/17
f 23/27/14 24/28/22 21/25/13
f 36/41/15 27/31/17 28/32/23
f 36/41/15 28/32/23 34/39/18
f 20/23/19 21/25/13 22/26/24
f 21/25/13 24/28/22 22/26/24
f 42/48/20 41/47/25 29/33/21
f 23/27/14 26/30/26 24/28/22
f 34/39/18 28/32/23 26/30/26
f 34/39/18 26/30/26 23/27/14
f 27/31/17 11/13/27 28/32/23
f 20/23/19 22/26/24 19/21/28
f 29/33/21 15/17/29 27/31/17
f 27/31/17 15/17/29 11/13/27
f 24/28/22 26/30/26 25/29/30
f 28/32/23 11/13/27 13/15/31
f 26/30/26 13/15/31 25/29/30
f 26/30/26 28/32/23 13/15/31
f 22/26/24 2/3/3 19/21/28
f 29/33/21 30/34/32 15/17/29
f 41/47/25 40/46/6 30/34/32
f 41/47/25 30/34/32 29/33/21
f 24/28/22 45/51/33 22/26/24
f 22/26/24 45/51/33 2/3/3
f 24/28/22 25/29/30 45/51/33
f 11/13/27 12/14/34 13/15/31
f 19/21/28 2/3/3 1/1/5
f 15/17/29 16/18/35 11/13/27
f 11/13/27 16/18/35 12/14/34
f 40/46/6 31/36/9 30/34/32
f 25/29/30 13/15/31 14/16/36
f 13/15/31 12/14/34 14/16/36
f 45/51/33 25/29/30 47/53/37
f 2/3/3 45/51/33 3/4/1
f 45/51/33 47/53/37 3/4/1
f 15/17/29 18/20/38 16/18/35
f 30/34/32 31/36/9 18/20/38
f 30/34/32 18/20/38 15/17/29
f 12/14/34 44/50/39 46/52/40
f 12/14/34 46/52/40 14/16/36
f 12/14/34 16/18/35 44/50/39
f 25/29/30 48/54/41 47/53/37
f 14/16/36 46/52/40 48/54/41
f 14/16/36 48/54/41 25/29/30
f 3/4/1 47/53/37 9/11/42
f 31/36/9 20/24/19 18/20/38
f 16/18/35 18/20/38 17/19/43
f 18/20/38 20/24/19 17/19/43
f 16/18/35 17/19/43 44/50/39
f 46/52/40 5/6/44 48/54/41
f 47/53/37 4/5/45 9/11/42
f 4/5/45 48/54/41 5/6/44
f 48/54/41 4/5/45 47/53/37
f 20/24/19 19/22/28 17/19/43
f 44/50/39 17/19/43 43/49/46
f 17/19/43 19/22/28 43/49/46
f 46/52/40 6/7/47 5/6/44
f 44/50/39 6/7/47 46/52/40
f 44/50/39 43/49/46 6/7/47
f 19/22/28 1/2/5 43/49/46
f 6/7/47 43/49/46 7/8/48
f 43/49/46 1/2/5 7/8/48
f 1/2/5 8/10/4 7/8/48
