# Blender 3.5.1
# www.blender.org
mtllib up_arms_R.mtl
o Meowth
v 2.104833 3.800853 1.009732
v 1.894583 4.229953 2.062099
v 1.467693 5.106751 2.359648
v 1.380013 5.106751 -0.203661
v 1.763723 4.289453 0.108550
v 1.193763 5.981952 1.898010
v 1.067613 6.358253 1.011829
v 1.008963 6.029653 0.082734
v 5.100113 3.865752 0.952199
v 5.090993 4.275653 2.020579
v 2.522923 3.922153 0.995814
v 2.446693 4.322453 2.003419
v 2.381233 4.322453 0.137443
v 5.083163 4.275653 0.052814
v 2.116603 5.106454 -0.236881
v 5.050693 5.106751 -0.359511
v 1.834143 5.942452 0.068372
v 5.006313 6.000552 0.014093
v 4.988543 6.381751 0.951878
v 1.724663 6.301553 0.997853
v 1.890603 5.942552 1.913010
v 5.020993 5.984752 1.980568
v 5.061513 5.105151 2.380538
v 2.200183 5.106652 2.352309
v 7.844893 6.016353 2.061819
v 7.846993 5.103553 2.445189
v 7.848193 4.225652 2.065279
v 7.848493 3.805652 0.908618
v 7.847893 4.225652 -0.036991
v 7.841593 6.407252 0.916571
v 7.842994 6.019454 -0.043301
v 8.864093 6.026052 2.093789
v 8.864093 5.103051 2.474478
v 8.861692 3.787152 0.902192
v 8.864093 4.209151 2.090499
v 8.864293 4.209151 -0.066491
v 8.864293 5.103051 -0.527061
v 8.861592 6.417953 0.907735
v 8.864293 6.026052 -0.066491
v 7.846493 5.103852 -0.489701
vn 0.4690 0.2446 -0.8487
vn -0.0265 -0.0385 -0.9989
vn 0.6819 -0.1945 -0.7051
vn -0.0390 -0.0299 -0.9988
vn 0.0276 -0.6965 -0.7170
vn -0.0349 -0.7196 -0.6935
vn 0.9380 -0.3352 -0.0877
vn -0.0392 -0.0093 -0.9992
vn 0.1216 -0.9919 -0.0364
vn -0.0326 -0.7275 -0.6853
vn -0.0240 -0.9992 -0.0318
vn -0.0198 -0.7223 0.6913
vn 0.0888 -0.6997 0.7089
vn -0.0322 -0.0061 -0.9995
vn -0.0278 -0.7302 -0.6827
vn 0.7776 -0.1681 0.6059
vn -0.0211 -0.9991 -0.0364
vn -0.0196 0.0059 0.9998
vn 0.0112 0.0514 0.9986
vn -0.0240 -0.7284 0.6847
vn -0.0183 -0.9992 -0.0356
vn 0.5420 0.3609 0.7590
vn -0.0190 0.7310 0.6821
vn -0.0274 -0.0060 0.9996
vn 0.0022 0.7418 0.6706
vn -0.0245 0.7330 0.6798
vn -0.0272 -0.7305 0.6824
vn 0.3664 0.7836 0.5017
vn -0.0165 0.9998 -0.0079
vn -0.0133 0.9996 -0.0257
vn -0.0291 -0.0071 0.9996
vn -0.0245 0.7327 0.6801
vn 0.0338 0.9994 0.0087
vn -0.0253 0.7091 -0.7047
vn -0.0139 0.9994 -0.0312
vn 0.1122 0.9934 0.0232
vn 0.0071 0.6842 -0.7292
vn -0.0236 0.7293 -0.6838
vn 0.3894 0.7489 -0.5362
vn -0.0220 0.7343 -0.6785
vt 0.200744 0.686257
vt 0.231875 0.681955
vt 0.255131 0.671955
vt 0.149435 0.669929
vt 0.360829 0.669929
vt 0.172030 0.678847
vt 0.283458 0.665114
vt 0.308977 0.662733
vt 0.334001 0.661639
vt 0.200449 0.758518
vt 0.230981 0.758518
vt 0.200537 0.696902
vt 0.231446 0.695258
vt 0.173441 0.694188
vt 0.174120 0.758518
vt 0.149435 0.688806
vt 0.360829 0.688806
vt 0.149435 0.758518
vt 0.360829 0.758518
vt 0.336208 0.681793
vt 0.335615 0.758518
vt 0.309212 0.758518
vt 0.308909 0.678821
vt 0.281692 0.682494
vt 0.280401 0.758518
vt 0.255131 0.758518
vt 0.255131 0.689680
vt 0.279748 0.821659
vt 0.255131 0.821659
vt 0.231041 0.821659
vt 0.200114 0.821659
vt 0.174168 0.821659
vt 0.309835 0.821659
vt 0.335564 0.821659
vt 0.279487 0.844267
vt 0.255133 0.844267
vt 0.200110 0.844267
vt 0.231165 0.844267
vt 0.174126 0.844267
vt 0.149435 0.844267
vt 0.360829 0.844267
vt 0.309983 0.844267
vt 0.335653 0.844267
vt 0.149435 0.821659
vt 0.360829 0.821659
s 1
usemtl Body00.016
f 4/4/1 15/16/2 5/6/3
f 15/16/2 16/18/4 13/14/5
f 15/16/2 13/14/5 5/6/3
f 16/18/4 14/15/6 13/14/5
f 5/6/3 13/14/5 1/1/7
f 16/18/4 40/44/8 14/15/6
f 13/14/5 14/15/6 11/12/9
f 13/14/5 11/12/9 1/1/7
f 40/44/8 29/32/10 14/15/6
f 11/12/9 9/10/11 10/11/12
f 1/1/7 11/12/9 12/13/13
f 11/12/9 14/15/6 9/10/11
f 11/12/9 10/11/12 12/13/13
f 40/44/8 37/40/14 36/39/15
f 40/44/8 36/39/15 29/32/10
f 1/1/7 12/13/13 2/2/16
f 14/15/6 28/31/17 9/10/11
f 14/15/6 29/32/10 28/31/17
f 10/11/12 23/26/18 12/13/13
f 2/2/16 12/13/13 24/27/19
f 12/13/13 23/26/18 24/27/19
f 9/10/11 27/30/20 10/11/12
f 9/10/11 28/31/17 27/30/20
f 29/32/10 36/39/15 34/37/21
f 28/31/17 34/37/21 27/30/20
f 28/31/17 29/32/10 34/37/21
f 2/2/16 24/27/19 3/3/22
f 23/26/18 22/25/23 24/27/19
f 10/11/12 26/29/24 23/26/18
f 10/11/12 27/30/20 26/29/24
f 3/3/22 24/27/19 21/24/25
f 24/27/19 22/25/23 21/24/25
f 23/26/18 25/28/26 22/25/23
f 23/26/18 26/29/24 25/28/26
f 27/30/20 34/37/21 35/38/27
f 27/30/20 35/38/27 26/29/24
f 3/3/22 21/24/25 6/7/28
f 22/25/23 19/22/29 21/24/25
f 25/28/26 30/33/30 22/25/23
f 22/25/23 30/33/30 19/22/29
f 26/29/24 33/36/31 32/35/32
f 26/29/24 32/35/32 25/28/26
f 35/38/27 33/36/31 26/29/24
f 6/7/28 21/24/25 20/23/33
f 21/24/25 19/22/29 20/23/33
f 30/33/30 18/21/34 19/22/29
f 25/28/26 32/35/32 38/42/35
f 25/28/26 38/42/35 30/33/30
f 6/7/28 20/23/33 7/8/36
f 18/21/34 15/17/2 17/20/37
f 19/22/29 18/21/34 17/20/37
f 19/22/29 17/20/37 20/23/33
f 30/33/30 31/34/38 18/21/34
f 30/33/30 38/42/35 31/34/38
f 7/8/36 20/23/33 8/9/39
f 20/23/33 17/20/37 8/9/39
f 15/17/2 18/21/34 16/19/4
f 18/21/34 31/34/38 16/19/4
f 38/42/35 39/43/40 31/34/38
f 17/20/37 4/5/1 8/9/39
f 4/5/1 17/20/37 15/17/2
f 16/19/4 31/34/38 40/45/8
f 31/34/38 39/43/40 40/45/8
f 40/45/8 39/43/40 37/41/14
