# Blender 3.5.1
# www.blender.org
mtllib up_lags_L.mtl
o Meowth.001
v -4.660857 -6.202638 1.816160
v -4.245267 -6.393928 0.554642
v -5.800847 -5.920118 2.014091
v -6.694457 -5.764368 1.418944
v -7.093998 -5.604608 0.554656
v -6.681387 -5.698848 -0.421620
v -5.800847 -5.869158 -0.877100
v -4.660857 -6.174308 -0.474810
v -5.807227 -6.606248 2.147840
v -6.709627 -6.495938 1.533558
v -4.706827 -6.716248 1.852247
v -4.317107 -6.768158 0.628334
v -4.706827 -6.718818 -0.337260
v -5.807227 -6.606246 -0.789530
v -6.691727 -6.476658 -0.340090
v -7.069007 -6.450978 0.628474
v -4.784177 -7.954008 1.899660
v -5.805637 -8.007547 2.312662
v -5.805637 -7.747488 -0.636168
v -4.801997 -7.800968 -0.141568
v -4.403337 -7.876248 0.823827
v -6.776357 -7.954008 1.790435
v -7.158397 -7.876248 0.823834
v -6.761567 -7.800968 -0.169288
vn -0.2622 -0.5770 -0.7735
vn 0.1903 -0.7950 -0.5760
vn -0.0691 -0.1364 -0.9882
vn 0.5012 -0.8622 -0.0737
vn 0.6928 -0.2037 -0.6918
vn 0.2066 -0.7690 0.6049
vn 0.9900 -0.1369 -0.0329
vn -0.0116 -0.0149 -0.9998
vn -0.1403 0.1418 0.9799
vn 0.6839 -0.0085 0.7295
vn 0.7421 -0.0618 -0.6675
vn -0.3429 -0.5144 0.7860
vn -0.7658 0.1331 0.6292
vn 0.7011 -0.0475 0.7115
vn 0.9983 -0.0585 0.0008
vn -0.7768 -0.3848 0.4984
vn -0.7386 0.0308 0.6735
vn -0.0499 -0.0107 0.9987
vn -0.9997 0.0234 0.0071
vn -0.9215 -0.3882 -0.0131
vn -0.9990 0.0341 0.0286
vn -0.7373 -0.0645 -0.6725
vn -0.7078 -0.4392 -0.5533
vn -0.7520 0.0213 -0.6588
vt 0.135344 0.659431
vt 0.163514 0.656678
vt 0.110680 0.666269
vt 0.083077 0.671644
vt 0.059507 0.674476
vt 0.034577 0.673558
vt 0.209330 0.662693
vt 0.008506 0.673933
vt 0.186496 0.659046
vt 0.110680 0.650335
vt 0.084613 0.653309
vt 0.134378 0.648471
vt 0.161872 0.647933
vt 0.184475 0.647712
vt 0.209330 0.648474
vt 0.008506 0.648474
vt 0.034596 0.653928
vt 0.060607 0.654424
vt 0.132454 0.622060
vt 0.110680 0.620652
vt 0.209330 0.621607
vt 0.008506 0.621608
vt 0.181591 0.622494
vt 0.156878 0.622600
vt 0.087917 0.620741
vt 0.064643 0.621311
vt 0.037780 0.621854
s 1
usemtl Body00.012
f 7/7/1 8/9/2 14/15/3
f 8/9/2 2/2/4 13/14/5
f 8/9/2 13/14/5 14/15/3
f 2/2/4 1/1/6 12/13/7
f 2/2/4 12/13/7 13/14/5
f 14/15/3 13/14/5 19/21/8
f 1/1/6 9/10/9 11/12/10
f 12/13/7 1/1/6 11/12/10
f 13/14/5 12/13/7 20/23/11
f 13/14/5 20/23/11 19/21/8
f 9/10/9 3/3/12 10/11/13
f 1/1/6 3/3/12 9/10/9
f 11/12/10 9/10/9 17/19/14
f 12/13/7 21/24/15 20/23/11
f 11/12/10 21/24/15 12/13/7
f 11/12/10 17/19/14 21/24/15
f 10/11/13 3/3/12 4/4/16
f 9/10/9 22/25/17 18/20/18
f 9/10/9 18/20/18 17/19/14
f 9/10/9 10/11/13 22/25/17
f 4/4/16 16/18/19 10/11/13
f 4/4/16 5/5/20 16/18/19
f 10/11/13 23/26/21 22/25/17
f 10/11/13 16/18/19 23/26/21
f 5/5/20 15/17/22 16/18/19
f 5/5/20 6/6/23 15/17/22
f 16/18/19 24/27/24 23/26/21
f 16/18/19 15/17/22 24/27/24
f 6/6/23 7/8/1 15/17/22
f 7/8/1 14/16/3 15/17/22
f 14/16/3 19/22/8 15/17/22
f 24/27/24 15/17/22 19/22/8
