# Blender 3.5.1
# www.blender.org
mtllib foot_L.mtl
o KERORO
v 0.243364 -4.359727 0.095651
v 0.200064 -4.359727 -0.049329
v 0.335165 -4.347357 0.152971
v 0.433165 -4.359727 0.095541
v 0.483265 -4.359727 -0.049329
v 0.433165 -4.359727 -0.190559
v 0.483265 -4.359727 -0.049329
v 0.335165 -4.359727 -0.262719
v 0.433165 -4.359727 -0.190559
v 0.243364 -4.359727 -0.190559
v 0.335165 -4.359727 -0.262719
v 0.200064 -4.359727 -0.049329
v 0.352064 -4.749067 0.536951
v 0.227064 -4.749067 0.465762
v 0.227064 -4.684497 0.480031
v 0.347965 -4.684447 0.554201
v 0.231764 -4.684497 -0.219469
v 0.231764 -4.749067 -0.205639
v 0.334564 -4.749067 -0.279279
v 0.334564 -4.684497 -0.296188
v 0.243364 -4.438667 -0.194779
v 0.335165 -4.438667 -0.267139
v 0.200064 -4.438667 -0.048679
v 0.169865 -4.684497 0.279621
v 0.169865 -4.749067 0.276671
v 0.194464 -4.684497 -0.048679
v 0.194464 -4.749067 -0.041709
v 0.231764 -4.749067 -0.205639
v 0.231764 -4.684497 -0.219469
v 0.232464 -4.586577 0.324291
v 0.339565 -4.547847 0.357101
v 0.335165 -4.416587 0.187391
v 0.338865 -4.531147 0.334381
v 0.233465 -4.570427 0.301281
v 0.243364 -4.438667 0.132511
v 0.200064 -4.438667 -0.048679
v 0.189264 -4.534857 0.077752
v 0.243364 -4.438667 -0.194779
v 0.463665 -4.684497 0.480031
v 0.463665 -4.749067 0.465762
v 0.352064 -4.749067 0.536951
v 0.347965 -4.684447 0.554201
v 0.334564 -4.749067 -0.279279
v 0.443964 -4.749067 -0.205639
v 0.443964 -4.684497 -0.219469
v 0.334564 -4.684497 -0.296188
v 0.433165 -4.438667 -0.194779
v 0.335165 -4.438667 -0.267139
v 0.433165 -4.438667 -0.194779
v 0.483265 -4.438667 -0.048679
v 0.525564 -4.684497 0.279621
v 0.525564 -4.749067 0.276671
v 0.500965 -4.684497 -0.048679
v 0.500965 -4.749067 -0.041709
v 0.443964 -4.684497 -0.219469
v 0.443964 -4.749067 -0.205639
v 0.448965 -4.577767 0.319342
v 0.525564 -4.684497 0.279621
v 0.463665 -4.684497 0.480031
v 0.433165 -4.438667 0.129101
v 0.446964 -4.561657 0.296311
v 0.498764 -4.540407 0.085241
v 0.483265 -4.438667 -0.048679
v 0.498764 -4.540407 0.085241
v 0.463665 -4.749067 0.465762
v 0.525564 -4.749067 0.276671
v 0.500965 -4.749067 -0.041709
v 0.443964 -4.749067 -0.205639
v 0.334564 -4.749067 -0.279279
vn -0.6957 -0.1786 0.6958
vn -0.8577 -0.0936 0.5055
vn -0.4962 -0.2204 0.8398
vn -0.5059 -0.2523 0.8249
vn -0.5796 -0.1885 -0.7928
vn -0.5737 -0.1715 -0.8009
vn -0.5989 -0.0438 -0.7996
vn -0.5972 -0.0554 -0.8002
vn -0.5932 0.0082 -0.8050
vn -0.6099 0.0825 -0.7882
vn -0.7887 0.0433 -0.6133
vn -0.8561 0.0025 -0.5169
vn -0.5932 0.0081 -0.8050
vn -0.9588 -0.0023 -0.2842
vn -0.9570 0.0014 -0.2899
vn -0.9571 0.0014 -0.2899
vn -0.8561 0.0026 -0.5169
vn -0.7881 -0.0172 0.6153
vn -0.9597 0.2134 0.1826
vn -0.9598 0.2133 0.1826
vn -0.9989 -0.0061 0.0465
vn -0.8578 -0.0936 0.5055
vn -0.9989 -0.0062 0.0465
vn -0.9881 0.0082 -0.1537
vn -0.9881 0.0083 -0.1537
vn -0.9886 -0.0161 -0.1496
vn -0.9770 0.0110 -0.2129
vn -0.9756 -0.0347 -0.2170
vn -0.9755 -0.0347 -0.2171
vn -0.9886 -0.0162 -0.1496
vn -0.7242 0.5382 0.4311
vn -0.6748 0.6268 0.3894
vn -0.2696 0.7947 0.5439
vn -0.6748 0.6269 0.3894
vn -0.5684 0.6936 0.4426
vn 0.0014 0.8219 0.5696
vn -0.0793 0.8245 0.5603
vn -0.6069 0.6460 0.4630
vn -0.4381 0.7104 0.5507
vn -0.4953 0.6053 0.6231
vn -0.4956 0.6053 0.6229
vn -0.7416 0.4648 0.4838
vn -0.9748 0.2118 0.0705
vn -0.7876 0.4178 0.4529
vn -0.9907 0.1114 0.0786
vn -0.5989 -0.0439 -0.7996
vn -0.5145 0.1687 0.8408
vn -0.5144 0.1687 0.8408
vn -0.8586 0.0718 0.5076
vn -0.9907 0.1114 0.0787
vn -0.8269 0.3596 0.4323
vn -0.9025 0.0932 0.4205
vn -0.8586 0.0718 0.5075
vn -0.9582 -0.0103 0.2859
vn -0.9676 0.0446 -0.2484
vn -0.9881 0.0082 -0.1538
vn -0.9748 0.2117 0.0705
vn 0.5293 -0.1854 0.8279
vn 0.8576 -0.0926 0.5058
vn 0.7095 -0.1537 0.6877
vn 0.5301 -0.1876 0.8269
vn 0.5294 -0.1855 0.8279
vn 0.5746 -0.0464 -0.8171
vn 0.5498 -0.1749 -0.8168
vn 0.5556 -0.1924 -0.8089
vn 0.5731 -0.0582 -0.8174
vn 0.5933 -0.0049 -0.8050
vn 0.5662 -0.0572 -0.8223
vn 0.5924 0.0648 -0.8030
vn 0.5854 0.0821 -0.8066
vn 0.9450 0.0390 -0.3247
vn 0.9402 -0.0687 -0.3335
vn 0.9376 -0.0750 -0.3394
vn 0.9701 0.0459 -0.2382
vn 0.9932 0.0021 0.1164
vn 0.7095 -0.1538 0.6877
vn 0.8577 -0.0926 0.5058
vn 0.8577 -0.0925 0.5058
vn 0.9985 -0.0065 0.0540
vn 0.9932 0.0022 0.1164
vn 0.9831 0.0372 -0.1791
vn 0.9695 -0.0378 -0.2421
vn 0.9831 0.0372 -0.1790
vn 0.9472 -0.0105 -0.3205
vn 0.9422 -0.0702 -0.3276
vn 0.9472 -0.0104 -0.3205
vn 0.5384 0.7180 0.4411
vn 0.8350 0.4848 0.2602
vn 0.5880 0.6863 0.4281
vn -0.0134 0.8316 0.5552
vn 0.5385 0.7180 0.4411
vn 0.2038 0.8095 0.5506
vn 0.6030 0.6651 0.4404
vn 0.7120 0.4997 0.4933
vn 0.4766 0.6253 0.6180
vn 0.3955 0.7483 0.5325
vn 0.7611 0.4495 0.4675
vn 0.8350 0.4847 0.2603
vn 0.8603 0.4541 0.2318
vn 0.7612 0.4495 0.4675
vn 0.5855 0.0820 -0.8065
vn 0.5854 0.0820 -0.8066
vn 0.5746 -0.0465 -0.8171
vn 0.5304 0.1193 0.8393
vn 0.7611 0.4495 0.4676
vn 0.7865 0.0905 0.6110
vn 0.9029 0.0262 0.4290
vn 0.8004 0.3919 0.4536
vn 0.9389 0.1927 0.2852
vn 0.9389 0.1927 0.2851
vn 0.9420 -0.0813 0.3257
vn 0.8547 0.0006 0.5191
vn 0.9450 0.0391 -0.3247
vn 0.9947 0.0781 -0.0674
vn -0.0000 -1.0000 -0.0000
vn 0.9701 0.0460 -0.2382
vn -0.9597 0.2134 0.1827
vn -0.9748 0.2118 0.0706
vn -0.9748 0.2117 0.0706
vn -0.6748 0.6269 0.3895
vn -0.6068 0.6461 0.4630
vn 0.8350 0.4848 0.2603
vn -0.4064 0.7531 0.5174
vn -0.4381 0.7105 0.5508
vn -0.6069 0.6460 0.4631
vn -0.2696 0.7946 0.5439
vn 0.3955 0.7483 0.5326
vn 0.2038 0.8095 0.5507
vt 0.542213 0.046806
vt 0.542213 0.046806
vt 0.542213 0.046806
vt 0.542213 0.046806
vt 0.542213 0.046806
vt 0.542213 0.034131
vt 0.542213 0.034131
vt 0.577372 0.046806
vt 0.577372 0.046806
vt 0.542213 0.034131
vt 0.542213 0.034131
vt 0.542213 0.034131
vt 0.542213 0.046806
vt 0.542213 0.046806
vt 0.542213 0.046806
vt 0.542213 0.046806
vt 0.542213 0.034131
vt 0.542213 0.034131
vt 0.542213 0.034131
vt 0.542213 0.034131
vt 0.542213 0.034131
vt 0.542213 0.034131
vt 0.542213 0.034131
vt 0.542213 0.046806
vt 0.542213 0.046806
vt 0.542213 0.046806
vt 0.542213 0.046806
vt 0.542213 0.046806
vt 0.542213 0.046806
vt 0.542213 0.046806
vt 0.542213 0.046806
vt 0.542213 0.046806
vt 0.542213 0.046806
vt 0.542213 0.046806
vt 0.542213 0.046806
vt 0.542213 0.046806
vt 0.542213 0.046806
vt 0.542213 0.046806
vt 0.542213 0.034131
vt 0.542213 0.034131
vt 0.542213 0.034131
vt 0.542213 0.034131
vt 0.577372 0.046806
vt 0.577372 0.046806
vt 0.577372 0.046806
vt 0.577372 0.046806
vt 0.577372 0.046806
vt 0.577372 0.046806
vt 0.542213 0.034131
vt 0.542213 0.034131
vt 0.542213 0.034131
vt 0.542213 0.034131
vt 0.542213 0.034131
vt 0.542213 0.034131
vt 0.542213 0.034131
vt 0.542213 0.034131
vt 0.542213 0.046806
vt 0.542213 0.046806
vt 0.542213 0.046806
vt 0.542213 0.046806
vt 0.542213 0.046806
vt 0.542213 0.046806
vt 0.542213 0.046806
vt 0.542213 0.034131
vt 0.542213 0.046806
vt 0.542213 0.046806
vt 0.542213 0.046806
vt 0.542213 0.046806
vt 0.542213 0.046806
s 0
usemtl acmat_2.002
f 15/15/1 14/14/2 13/13/3
f 13/13/3 16/16/4 15/15/1
f 19/19/5 18/18/6 17/17/7
f 17/17/7 20/20/8 19/19/5
f 11/11/9 22/22/10 21/21/11
f 21/21/11 10/10/12 11/11/13
f 21/21/11 23/23/14 12/12/15
f 12/12/16 10/10/17 21/21/11
f 14/14/2 15/15/18 24/24/19
f 24/24/20 25/25/21 14/14/22
f 25/25/23 24/24/20 26/26/24
f 26/26/25 27/27/26 25/25/21
f 26/26/25 29/29/27 28/28/28
f 28/28/29 27/27/30 26/26/24
f 15/15/31 30/30/32 24/24/20
f 31/31/33 30/30/34 15/15/35
f 15/15/35 16/16/36 31/31/37
f 34/34/38 33/33/39 32/32/40
f 32/32/41 35/35/42 34/34/38
f 37/37/43 35/35/44 36/36/45
f 22/22/10 20/20/8 17/17/7
f 17/17/46 21/21/11 22/22/10
f 35/35/44 32/32/41 3/3/47
f 3/3/48 1/1/49 35/35/44
f 36/36/50 35/35/51 1/1/52
f 1/1/53 2/2/54 36/36/45
f 26/26/24 36/36/45 38/38/55
f 38/38/55 29/29/27 26/26/25
f 26/26/56 37/37/57 36/36/50
f 41/41/58 40/40/59 39/39/60
f 39/39/60 42/42/61 41/41/62
f 45/45/63 44/44/64 43/43/65
f 43/43/65 46/46/66 45/45/63
f 8/8/67 9/9/68 47/47/69
f 47/47/69 48/48/70 8/8/67
f 49/49/71 6/6/72 7/7/73
f 7/7/73 50/50/74 49/49/71
f 51/51/75 39/39/76 40/40/77
f 40/40/78 52/52/79 51/51/80
f 53/53/81 51/51/80 52/52/79
f 52/52/79 54/54/82 53/53/83
f 55/55/84 53/53/83 54/54/82
f 54/54/82 56/56/85 55/55/86
f 59/59/87 58/58/88 57/57/89
f 31/31/90 16/16/36 59/59/91
f 59/59/91 57/57/89 31/31/92
f 61/61/93 60/60/94 32/32/95
f 32/32/95 33/33/96 61/61/93
f 60/60/97 61/61/93 58/58/98
f 58/58/98 62/62/99 60/60/100
f 45/45/63 46/46/66 48/48/101
f 48/48/102 47/47/69 45/45/103
f 3/3/104 32/32/95 60/60/105
f 60/60/105 4/4/106 3/3/104
f 4/4/107 60/60/108 63/63/109
f 63/63/110 5/5/111 4/4/112
f 49/49/71 50/50/74 53/53/81
f 53/53/83 55/55/86 49/49/113
f 53/53/83 64/64/114 51/51/80
f 65/65/115 14/14/115 25/25/115
f 25/25/115 66/66/115 65/65/115
f 66/66/115 25/25/115 27/27/115
f 27/27/115 67/67/115 66/66/115
f 67/67/115 27/27/115 28/28/115
f 28/28/115 68/68/115 67/67/115
f 28/28/115 69/69/115 68/68/115
f 65/65/115 13/13/115 14/14/115
f 60/60/97 62/62/99 63/63/109
f 64/64/114 53/53/81 50/50/116
f 24/24/117 34/34/38 35/35/44
f 35/35/44 37/37/118 24/24/20
f 37/37/119 26/26/24 24/24/20
f 30/30/120 34/34/121 24/24/117
f 57/57/89 58/58/122 61/61/93
f 31/31/123 33/33/124 34/34/38
f 34/34/125 30/30/34 31/31/126
f 57/57/89 61/61/93 33/33/127
f 33/33/127 31/31/128 57/57/89
