# Blender 3.5.1
# www.blender.org
mtllib foot_R.mtl
o KERORO
v -0.229635 -4.359727 0.095651
v -0.186335 -4.359727 -0.049329
v -0.321535 -4.347357 0.152971
v -0.321535 -4.347357 0.152971
v -0.419436 -4.359727 0.095541
v -0.469536 -4.359727 -0.049329
v -0.469536 -4.359727 -0.049329
v -0.419436 -4.359727 -0.190559
v -0.419436 -4.359727 -0.190559
v -0.321535 -4.359727 -0.262719
v -0.321535 -4.359727 -0.262719
v -0.229635 -4.359727 -0.190559
v -0.186335 -4.359727 -0.049329
v -0.338335 -4.749067 0.536951
v -0.334236 -4.684447 0.554201
v -0.213335 -4.684497 0.480031
v -0.213335 -4.749067 0.465762
v -0.218035 -4.684497 -0.219469
v -0.320835 -4.684497 -0.296188
v -0.320835 -4.749067 -0.279279
v -0.218035 -4.749067 -0.205639
v -0.229635 -4.438667 -0.194779
v -0.321535 -4.438667 -0.267139
v -0.186335 -4.438667 -0.048679
v -0.156235 -4.684497 0.279621
v -0.156235 -4.749067 0.276671
v -0.180836 -4.684497 -0.048679
v -0.180836 -4.749067 -0.041709
v -0.218035 -4.749067 -0.205639
v -0.218035 -4.684497 -0.219469
v -0.218735 -4.586577 0.324291
v -0.325935 -4.547847 0.357101
v -0.321535 -4.416587 0.187391
v -0.229635 -4.438667 0.132511
v -0.219835 -4.570427 0.301281
v -0.325136 -4.531147 0.334381
v -0.186335 -4.438667 -0.048679
v -0.175535 -4.534857 0.077752
v -0.229635 -4.438667 -0.194779
v -0.449936 -4.684497 0.480031
v -0.334236 -4.684447 0.554201
v -0.338335 -4.749067 0.536951
v -0.449936 -4.749067 0.465762
v -0.320835 -4.749067 -0.279279
v -0.320835 -4.684497 -0.296188
v -0.430235 -4.684497 -0.219469
v -0.430235 -4.749067 -0.205639
v -0.419436 -4.438667 -0.194779
v -0.321535 -4.438667 -0.267139
v -0.469536 -4.438667 -0.048679
v -0.419436 -4.438667 -0.194779
v -0.511835 -4.749067 0.276671
v -0.511835 -4.684497 0.279621
v -0.487236 -4.749067 -0.041709
v -0.487236 -4.684497 -0.048679
v -0.430235 -4.749067 -0.205639
v -0.430235 -4.684497 -0.219469
v -0.511835 -4.684497 0.279621
v -0.435236 -4.577767 0.319342
v -0.449936 -4.684497 0.480031
v -0.449936 -4.684497 0.480031
v -0.435236 -4.577767 0.319342
v -0.321535 -4.416587 0.187391
v -0.325136 -4.531147 0.334381
v -0.433235 -4.561657 0.296311
v -0.419436 -4.438667 0.129101
v -0.485035 -4.540407 0.085241
v -0.469536 -4.438667 -0.048679
v -0.485035 -4.540407 0.085241
v -0.511835 -4.749067 0.276671
v -0.449936 -4.749067 0.465762
v -0.180836 -4.749067 -0.041709
v -0.487236 -4.749067 -0.041709
v -0.218035 -4.749067 -0.205639
v -0.433235 -4.561657 0.296311
vn 0.6957 -0.1786 0.6958
vn 0.5058 -0.2519 0.8251
vn 0.4962 -0.2204 0.8398
vn 0.8577 -0.0936 0.5055
vn 0.5796 -0.1885 -0.7928
vn 0.5972 -0.0554 -0.8002
vn 0.5989 -0.0438 -0.7996
vn 0.5737 -0.1715 -0.8009
vn 0.5932 0.0081 -0.8050
vn 0.8561 0.0025 -0.5169
vn 0.7887 0.0433 -0.6133
vn 0.6099 0.0825 -0.7882
vn 0.5932 0.0082 -0.8050
vn 0.8561 0.0026 -0.5169
vn 0.9571 0.0014 -0.2899
vn 0.9588 -0.0023 -0.2842
vn 0.9989 -0.0061 0.0465
vn 0.9598 0.2133 0.1826
vn 0.9597 0.2134 0.1826
vn 0.7881 -0.0172 0.6153
vn 0.8578 -0.0936 0.5055
vn 0.9989 -0.0062 0.0465
vn 0.9886 -0.0162 -0.1496
vn 0.9881 0.0082 -0.1537
vn 0.9881 0.0082 -0.1538
vn 0.9881 0.0083 -0.1537
vn 0.9886 -0.0161 -0.1496
vn 0.9756 -0.0347 -0.2170
vn 0.9770 0.0110 -0.2129
vn 0.7242 0.5383 0.4311
vn 0.6748 0.6269 0.3894
vn 0.0793 0.8245 0.5603
vn -0.0014 0.8219 0.5696
vn 0.5684 0.6936 0.4426
vn 0.5683 0.6936 0.4427
vn 0.6748 0.6269 0.3895
vn 0.2696 0.7947 0.5439
vn 0.6069 0.6460 0.4630
vn 0.7416 0.4648 0.4838
vn 0.4956 0.6053 0.6229
vn 0.4381 0.7105 0.5508
vn 0.6069 0.6460 0.4631
vn 0.9748 0.2118 0.0705
vn 0.9907 0.1114 0.0786
vn 0.7876 0.4178 0.4529
vn 0.8586 0.0718 0.5075
vn 0.5144 0.1687 0.8408
vn 0.5145 0.1687 0.8407
vn 0.7876 0.4179 0.4529
vn 0.9582 -0.0103 0.2859
vn 0.8587 0.0717 0.5075
vn 0.9025 0.0932 0.4205
vn 0.8269 0.3596 0.4323
vn 0.9907 0.1114 0.0787
vn 0.9676 0.0446 -0.2484
vn 0.9748 0.2117 0.0706
vn -0.5294 -0.1855 0.8279
vn -0.5301 -0.1871 0.8270
vn -0.7095 -0.1537 0.6877
vn -0.8576 -0.0925 0.5058
vn -0.5293 -0.1854 0.8279
vn -0.5746 -0.0464 -0.8171
vn -0.5731 -0.0582 -0.8174
vn -0.5556 -0.1923 -0.8089
vn -0.5498 -0.1749 -0.8168
vn -0.5930 -0.0049 -0.8052
vn -0.5854 0.0820 -0.8066
vn -0.5924 0.0647 -0.8030
vn -0.5926 0.0648 -0.8029
vn -0.5662 -0.0572 -0.8223
vn -0.5933 -0.0049 -0.8050
vn -0.9450 0.0390 -0.3247
vn -0.9701 0.0459 -0.2382
vn -0.9376 -0.0750 -0.3394
vn -0.9377 -0.0749 -0.3394
vn -0.9402 -0.0687 -0.3335
vn -0.9450 0.0391 -0.3247
vn -0.9932 0.0023 0.1164
vn -0.9985 -0.0064 0.0540
vn -0.8577 -0.0925 0.5058
vn -0.8577 -0.0926 0.5058
vn -0.7095 -0.1538 0.6877
vn -0.9932 0.0022 0.1164
vn -0.9831 0.0372 -0.1791
vn -0.9695 -0.0378 -0.2421
vn -0.9985 -0.0065 0.0540
vn -0.9472 -0.0104 -0.3205
vn -0.9422 -0.0702 -0.3276
vn -0.8277 0.4996 0.2557
vn -0.8273 0.4958 0.2641
vn -0.8350 0.4847 0.2603
vn -0.2038 0.8095 0.5506
vn -0.3893 0.7677 0.5090
vn -0.3606 0.7831 0.5067
vn 0.0134 0.8316 0.5552
vn -0.6514 0.6319 0.4199
vn -0.4014 0.7272 0.5569
vn -0.4766 0.6253 0.6180
vn -0.7120 0.4997 0.4933
vn -0.7612 0.4495 0.4675
vn -0.8603 0.4541 0.2318
vn -0.8350 0.4848 0.2603
vn -0.7611 0.4495 0.4675
vn -0.5924 0.0648 -0.8030
vn -0.5854 0.0821 -0.8065
vn -0.5855 0.0820 -0.8065
vn -0.5730 -0.0582 -0.8175
vn -0.5304 0.1192 0.8393
vn -0.7864 0.0905 0.6110
vn -0.7611 0.4495 0.4676
vn -0.5304 0.1193 0.8393
vn -0.8547 0.0006 0.5191
vn -0.9417 -0.0813 0.3264
vn -0.9389 0.1927 0.2851
vn -0.9389 0.1927 0.2852
vn -0.8004 0.3919 0.4536
vn -0.9029 0.0262 0.4290
vn -0.9472 -0.0105 -0.3205
vn -0.9831 0.0372 -0.1790
vn -0.9947 0.0781 -0.0674
vn -0.0000 -1.0000 -0.0000
vn -0.9389 0.1926 0.2852
vn -0.9701 0.0460 -0.2382
vn 0.9748 0.2118 0.0706
vn 0.9598 0.2134 0.1826
vn 0.9597 0.2134 0.1827
vn 0.9881 0.0083 -0.1538
vn -0.6514 0.6319 0.4200
vn 0.2696 0.7946 0.5439
vn 0.4380 0.7105 0.5508
vn 0.4063 0.7531 0.5174
vn -0.3893 0.7676 0.5091
vn -0.2038 0.8095 0.5507
vn -0.3924 0.7586 0.5202
vn -0.3943 0.7688 0.5035
vt 0.542213 0.046806
vt 0.542213 0.046806
vt 0.542213 0.046806
vt 0.542213 0.034131
vt 0.542213 0.034131
vt 0.542213 0.034131
vt 0.577372 0.034131
vt 0.577372 0.034131
vt 0.577372 0.046806
vt 0.577372 0.046806
vt 0.542213 0.034131
vt 0.542213 0.034131
vt 0.542213 0.034131
vt 0.542213 0.046806
vt 0.542213 0.046806
vt 0.542213 0.046806
vt 0.542213 0.046806
vt 0.542213 0.034131
vt 0.542213 0.034131
vt 0.542213 0.034131
vt 0.542213 0.034131
vt 0.542213 0.034131
vt 0.542213 0.034131
vt 0.542213 0.034131
vt 0.542213 0.046806
vt 0.542213 0.046806
vt 0.542213 0.046806
vt 0.542213 0.046806
vt 0.542213 0.046806
vt 0.542213 0.046806
vt 0.542213 0.046806
vt 0.542213 0.046806
vt 0.542213 0.046806
vt 0.542213 0.046806
vt 0.542213 0.046806
vt 0.542213 0.046806
vt 0.542213 0.046806
vt 0.542213 0.046806
vt 0.542213 0.046806
vt 0.577372 0.034131
vt 0.577372 0.034131
vt 0.577372 0.034131
vt 0.577372 0.034131
vt 0.577372 0.046806
vt 0.577372 0.046806
vt 0.577372 0.046806
vt 0.577372 0.046806
vt 0.577372 0.046806
vt 0.577372 0.046806
vt 0.577372 0.034131
vt 0.577372 0.034131
vt 0.577372 0.034131
vt 0.577372 0.034131
vt 0.577372 0.034131
vt 0.577372 0.034131
vt 0.577372 0.034131
vt 0.577372 0.034131
vt 0.542213 0.034131
vt 0.542213 0.034131
vt 0.542213 0.034131
vt 0.542213 0.046806
vt 0.542213 0.046806
vt 0.542213 0.034131
vt 0.542213 0.034131
vt 0.542213 0.034131
vt 0.542213 0.034131
vt 0.542213 0.034131
vt 0.542213 0.034131
vt 0.577372 0.034131
vt 0.577372 0.046806
vt 0.542213 0.046806
vt 0.577372 0.046806
vt 0.577372 0.046806
vt 0.577372 0.046806
vt 0.542213 0.046806
s 0
usemtl acmat_2.005
f 16/16/1 15/15/2 14/14/3
f 14/14/3 17/17/4 16/16/1
f 20/20/5 19/19/6 18/18/7
f 18/18/7 21/21/8 20/20/5
f 11/11/9 12/12/10 22/22/11
f 22/22/11 23/23/12 11/11/13
f 22/22/11 12/12/14 13/13/15
f 13/13/15 24/24/16 22/22/11
f 17/17/4 26/26/17 25/25/18
f 25/25/19 16/16/20 17/17/21
f 26/26/22 28/28/23 27/27/24
f 27/27/25 25/25/18 26/26/17
f 27/27/26 28/28/27 29/29/28
f 29/29/28 30/30/29 27/27/24
f 16/16/30 25/25/18 31/31/31
f 32/32/32 15/15/33 16/16/34
f 16/16/35 31/31/36 32/32/37
f 35/35/38 34/34/39 33/33/40
f 33/33/40 36/36/41 35/35/42
f 38/38/43 37/37/44 34/34/45
f 23/23/12 22/22/11 18/18/7
f 18/18/7 19/19/6 23/23/12
f 34/34/45 1/1/46 3/3/47
f 3/3/48 33/33/40 34/34/49
f 37/37/44 2/2/50 1/1/51
f 1/1/52 34/34/53 37/37/54
f 27/27/26 30/30/29 39/39/55
f 39/39/55 37/37/44 27/27/24
f 27/27/24 37/37/44 38/38/56
f 42/42/57 41/41/58 40/40/59
f 40/40/59 43/43/60 42/42/61
f 46/46/62 45/45/63 44/44/64
f 44/44/64 47/47/65 46/46/62
f 10/10/66 49/49/67 48/48/68
f 48/48/69 9/9/70 10/10/71
f 51/51/72 50/50/73 7/7/74
f 7/7/75 8/8/76 51/51/77
f 53/53/78 52/52/79 43/43/80
f 43/43/81 40/40/82 53/53/83
f 55/55/84 54/54/85 52/52/86
f 52/52/86 53/53/83 55/55/84
f 57/57/87 56/56/88 54/54/85
f 54/54/85 55/55/84 57/57/87
f 60/60/89 59/59/90 58/58/91
f 32/32/92 62/62/93 61/61/94
f 61/61/94 15/15/33 32/32/95
f 65/65/96 64/64/97 63/63/98
f 63/63/98 66/66/99 65/65/96
f 66/66/100 67/67/101 58/58/91
f 58/58/102 65/65/96 66/66/103
f 46/46/62 48/48/104 49/49/105
f 49/49/106 45/45/107 46/46/62
f 4/4/108 5/5/109 66/66/110
f 66/66/110 63/63/98 4/4/111
f 5/5/112 6/6/113 68/68/114
f 68/68/115 66/66/116 5/5/117
f 51/51/77 57/57/118 55/55/119
f 55/55/84 50/50/73 51/51/72
f 55/55/84 53/53/83 69/69/120
f 71/71/121 70/70/121 26/26/121
f 26/26/121 17/17/121 71/71/121
f 70/70/121 73/73/121 72/72/121
f 72/72/121 26/26/121 70/70/121
f 73/73/121 47/47/121 74/74/121
f 74/74/121 72/72/121 73/73/121
f 74/74/121 47/47/121 44/44/121
f 71/71/121 17/17/121 14/14/121
f 66/66/100 68/68/122 67/67/101
f 69/69/120 50/50/123 55/55/84
f 25/25/19 38/38/124 34/34/45
f 34/34/45 35/35/42 25/25/125
f 38/38/124 25/25/126 27/27/127
f 31/31/36 25/25/126 35/35/38
f 59/59/90 65/65/128 58/58/102
f 32/32/129 31/31/31 35/35/38
f 35/35/42 36/36/130 32/32/131
f 62/62/132 32/32/133 36/36/134
f 36/36/134 75/75/135 62/62/93
