# Blender 3.5.1
# www.blender.org
mtllib up_arms_R.mtl
o KERORO
v -0.647835 0.192259 0.003781
v -0.647835 0.192259 0.003781
v -0.627935 0.111878 -0.181439
v -0.796436 0.164645 0.014741
v -0.647835 0.192259 0.003781
v -0.630236 0.108002 0.186641
v -0.783836 0.085507 0.176911
v -0.783836 0.085507 0.176911
v -0.650835 -0.071988 0.253541
v -0.766836 -0.083607 0.246671
v -0.780836 0.092671 -0.145769
v -0.649536 -0.068933 -0.233789
v -0.780836 0.092671 -0.145769
v -0.766836 -0.084635 -0.209579
v -0.630236 0.108002 0.186641
v -0.650835 -0.071988 0.253541
v -0.688635 -0.304391 -0.213669
v -0.881935 -0.093627 0.251671
v -0.766836 -0.271376 0.220431
v -0.932636 0.056332 0.187001
v -0.932636 0.056332 0.187001
v -0.944836 0.122538 0.023611
v -0.931736 0.051256 -0.131579
v -0.898735 -0.090432 -0.200079
v -0.766836 -0.281769 -0.162269
v -0.723635 -0.310424 0.225011
v -0.774136 -0.378566 0.020191
v -0.799236 -0.354144 0.020611
v -0.723635 -0.310424 0.225011
v -0.650835 -0.071988 0.253541
v -1.576735 -0.301709 0.230181
v -1.576836 -0.115049 0.271511
v -1.576635 0.057589 0.199791
v -1.576635 0.123336 0.019691
v -1.576635 0.048902 -0.158359
v -1.576635 0.123336 0.019691
v -1.576836 -0.128895 -0.232429
v -1.576735 -0.313187 -0.179199
v -1.576735 -0.392925 0.018311
v -1.576735 -0.313187 -0.179199
v -1.666435 0.123440 0.019621
v -1.666435 0.123440 0.019621
v -1.666435 0.048601 -0.162569
v -1.666435 -0.131491 -0.238309
v -1.666435 -0.317812 -0.182859
v -1.666435 -0.398497 0.018401
v -1.666435 -0.317812 -0.182859
v -0.774136 -0.378566 0.020191
vn -0.1431 0.7574 0.6371
vn -0.1349 0.8949 0.4253
vn -0.1670 0.8905 0.4233
vn -0.1669 0.8905 0.4233
vn -0.1504 0.8838 0.4430
vn -0.1431 0.7574 0.6370
vn -0.1064 0.1349 0.9851
vn -0.0527 0.3763 0.9250
vn -0.0527 0.3762 0.9250
vn -0.0194 0.1237 0.9921
vn -0.2382 0.8778 -0.4155
vn -0.3192 0.8593 -0.3996
vn -0.3150 0.7745 -0.5486
vn -0.3496 0.6944 -0.6290
vn -0.2428 0.8762 -0.4164
vn -0.2381 0.8779 -0.4155
vn -0.1901 0.3340 -0.9232
vn -0.3889 0.4623 -0.7969
vn -0.4097 0.1542 -0.8991
vn -0.1411 0.0475 -0.9889
vn -0.0344 -0.1269 0.9913
vn 0.0198 0.1143 0.9932
vn 0.0198 0.1144 0.9932
vn -0.0194 0.1238 0.9921
vn 0.0062 0.3918 0.9200
vn 0.0198 0.1143 0.9933
vn -0.1225 0.9076 0.4016
vn -0.0748 0.9267 0.3684
vn -0.2381 0.8778 -0.4156
vn -0.2428 0.8761 -0.4164
vn -0.1514 0.7424 -0.6527
vn -0.1202 0.6912 -0.7126
vn -0.0852 0.9075 -0.4113
vn -0.0400 0.0838 -0.9957
vn -0.1202 0.6913 -0.7125
vn -0.1411 0.0474 -0.9889
vn -0.1921 -0.1599 -0.9683
vn -0.1652 -0.0673 0.9840
vn -0.3874 -0.8268 -0.4077
vn -0.4968 -0.7583 -0.4221
vn -0.5752 -0.7130 -0.4010
vn -0.6615 -0.7498 -0.0106
vn -0.3444 -0.9150 -0.2101
vn -0.3874 -0.8269 -0.4077
vn -0.7414 0.1711 -0.6489
vn -0.4415 -0.8014 0.4035
vn -0.3467 -0.9111 0.2229
vn -0.6893 -0.7114 0.1368
vn -0.6892 -0.7115 0.1367
vn -0.6421 -0.6659 0.3799
vn -0.4414 -0.8015 0.4034
vn 0.0395 0.1954 0.9799
vn 0.0437 -0.2062 0.9775
vn 0.0308 0.3834 0.9231
vn 0.0396 0.1954 0.9799
vn -0.0446 0.9969 0.0642
vn -0.0009 0.9394 0.3429
vn 0.0054 0.9368 0.3497
vn -0.0584 0.9801 0.1895
vn -0.0678 0.9697 -0.2346
vn 0.0200 0.7932 -0.6086
vn 0.0036 0.9226 -0.3857
vn -0.0533 0.9925 -0.1098
vn -0.1203 0.6912 -0.7126
vn -0.0400 0.0837 -0.9957
vn 0.0490 0.1830 -0.9819
vn 0.0210 0.7577 -0.6523
vn -0.0844 0.6408 -0.7630
vn 0.0534 -0.2539 -0.9658
vn 0.0534 -0.2538 -0.9658
vn 0.0490 0.1831 -0.9819
vn -0.1058 -0.9899 0.0945
vn -0.4415 -0.8014 0.4034
vn 0.0510 -0.9194 0.3899
vn 0.0510 -0.9173 0.3949
vn -0.1440 -0.9644 0.2217
vn -0.1457 -0.9676 -0.2063
vn 0.0558 -0.9261 -0.3730
vn 0.0513 -0.9278 -0.3695
vn -0.1077 -0.9912 -0.0771
vn 0.0002 0.9394 0.3429
vn 0.0047 0.9412 0.3379
vn 0.0058 0.9242 -0.3819
vn 0.0024 0.9226 -0.3857
vn 0.0201 0.7932 -0.6086
vn 0.0084 0.9199 -0.3920
vn 0.0342 0.7668 -0.6410
vn 0.0532 0.3861 -0.9209
vn 0.0489 0.1830 -0.9819
vn 0.0641 0.0543 -0.9965
vn 0.0379 0.6489 -0.7599
vn 0.0596 -0.2872 -0.9560
vn 0.0641 0.0542 -0.9965
vn 0.0622 -0.9748 0.2143
vn 0.0611 -0.9261 -0.3722
vn 0.0558 -0.9262 -0.3730
vn 0.0642 -0.9954 -0.0708
vn 0.0610 -0.9262 -0.3722
vt 0.542213 0.046806
vt 0.542213 0.046806
vt 0.577372 0.046806
vt 0.577372 0.046806
vt 0.577372 0.046806
vt 0.577372 0.046806
vt 0.542213 0.046806
vt 0.577372 0.046806
vt 0.542213 0.046806
vt 0.542213 0.046806
vt 0.542213 0.046806
vt 0.577372 0.046806
vt 0.542213 0.046806
vt 0.542213 0.046806
vt 0.542213 0.046806
vt 0.542213 0.046806
vt 0.542213 0.046806
vt 0.577372 0.046806
vt 0.577372 0.046806
vt 0.577372 0.046806
vt 0.577372 0.046806
vt 0.542213 0.046806
vt 0.577372 0.046806
vt 0.542213 0.046806
vt 0.542213 0.046806
vt 0.542213 0.046806
vt 0.542213 0.046806
vt 0.542213 0.046806
vt 0.542213 0.046806
vt 0.542213 0.046806
vt 0.577372 0.046806
vt 0.577372 0.046806
vt 0.577372 0.046806
vt 0.577372 0.046806
vt 0.542213 0.046806
vt 0.542213 0.046806
vt 0.542213 0.046806
vt 0.577372 0.046806
vt 0.577372 0.046806
vt 0.577372 0.046806
vt 0.577372 0.046806
vt 0.542213 0.046806
vt 0.542213 0.046806
s 0
usemtl acmat_2.005
f 6/5/1 5/4/2 4/3/3
f 4/3/4 7/6/5 6/5/6
f 9/8/7 6/5/6 8/7/8
f 8/7/9 10/9/10 9/8/7
f 4/3/11 2/1/12 3/2/13
f 3/2/14 11/10/15 4/3/16
f 13/12/17 3/2/18 12/11/19
f 12/11/19 14/13/20 13/12/17
f 19/16/21 10/9/10 18/15/22
f 18/15/23 10/9/24 8/7/8
f 8/7/9 20/17/25 18/15/26
f 21/18/27 7/6/5 4/3/4
f 4/3/4 22/19/28 21/18/27
f 4/3/29 11/10/30 23/20/31
f 23/20/32 22/19/33 4/3/16
f 24/21/34 23/20/35 13/12/17
f 13/12/17 14/13/36 24/21/34
f 24/21/34 14/13/20 25/22/37
f 9/8/7 19/16/21 26/23/38
f 25/22/39 17/14/40 27/24/41
f 27/24/42 28/25/43 25/22/44
f 17/14/45 25/22/37 12/11/19
f 19/16/46 28/25/47 27/24/48
f 27/24/49 29/26/50 19/16/51
f 9/8/7 10/9/10 19/16/21
f 25/22/37 14/13/20 12/11/19
f 18/15/26 32/28/52 31/27/53
f 31/27/53 19/16/21 18/15/23
f 20/17/25 33/29/54 32/28/52
f 32/28/55 18/15/23 20/17/25
f 22/19/56 34/30/57 33/29/58
f 33/29/58 21/18/27 22/19/59
f 22/19/60 23/20/32 35/31/61
f 35/31/61 36/32/62 22/19/63
f 23/20/64 24/21/65 37/33/66
f 37/33/66 35/31/67 23/20/68
f 24/21/65 25/22/37 38/34/69
f 38/34/70 37/33/71 24/21/34
f 28/25/72 19/16/73 31/27/74
f 31/27/74 39/35/75 28/25/76
f 28/25/77 39/35/78 40/36/79
f 40/36/79 25/22/44 28/25/80
f 33/29/58 34/30/81 41/37/82
f 42/38/83 36/32/84 35/31/85
f 35/31/86 43/39/87 42/38/83
f 43/39/88 35/31/67 37/33/71
f 37/33/89 44/40/90 43/39/91
f 44/40/90 37/33/89 38/34/70
f 38/34/69 45/41/92 44/40/93
f 39/35/75 31/27/74 46/42/94
f 47/43/95 40/36/79 39/35/78
f 39/35/96 46/42/97 47/43/98
l 1 15
l 15 16
l 29 30
l 17 48
