# Blender 3.5.1
# www.blender.org
mtllib low_legs_R.mtl
o KERORO
v -0.601036 -3.193627 -0.239119
v -0.601036 -3.193627 -0.239119
v -0.413036 -3.193107 -0.345409
v -0.243435 -3.193007 -0.249289
v -0.229635 -4.359727 0.095651
v -0.259836 -3.403727 0.160421
v -0.169636 -3.367157 -0.025389
v -0.186335 -4.359727 -0.049329
v -0.321535 -4.347357 0.152971
v -0.420736 -3.431457 0.232701
v -0.573435 -3.402017 0.142151
v -0.321535 -4.347357 0.152971
v -0.419436 -4.359727 0.095541
v -0.643835 -3.365367 -0.044739
v -0.469536 -4.359727 -0.049329
v -0.575436 -3.333697 -0.231229
v -0.643835 -3.365367 -0.044739
v -0.469536 -4.359727 -0.049329
v -0.419436 -4.359727 -0.190559
v -0.400135 -3.334227 -0.336159
v -0.575436 -3.333697 -0.231229
v -0.419436 -4.359727 -0.190559
v -0.321535 -4.359727 -0.262719
v -0.241035 -3.334327 -0.240599
v -0.321535 -4.359727 -0.262719
v -0.229635 -4.359727 -0.190559
v -0.186335 -4.359727 -0.049329
v -0.261036 -3.263667 0.174151
v -0.164635 -3.263667 -0.023659
v -0.440435 -3.263657 0.252491
v -0.599535 -3.263647 0.154891
v -0.663536 -3.263657 -0.044369
v -0.663536 -3.263657 -0.044369
vn 0.9990 -0.0230 0.0395
vn 0.7148 -0.0436 0.6980
vn 0.8586 0.0717 0.5075
vn 0.8586 0.0718 0.5075
vn 0.9582 -0.0103 0.2859
vn 0.4117 -0.0601 0.9093
vn 0.5144 0.1687 0.8408
vn 0.8256 0.0633 0.5607
vn 0.7148 -0.0436 0.6979
vn -0.5304 0.1193 0.8393
vn -0.5251 -0.1452 0.8386
vn -0.6890 -0.1679 0.7050
vn -0.6890 -0.1679 0.7051
vn -0.8232 -0.0241 0.5673
vn -0.8945 -0.0702 0.4415
vn -0.9326 -0.1791 0.3132
vn -0.9420 -0.0814 0.3257
vn -0.9377 -0.0749 -0.3394
vn -0.9160 -0.1674 -0.3646
vn -0.9194 -0.1692 -0.3551
vn -0.9402 -0.0687 -0.3335
vn -0.5662 -0.0572 -0.8223
vn -0.5030 -0.1173 -0.8563
vn -0.5377 -0.1057 -0.8365
vn -0.5933 -0.0049 -0.8050
vn 0.5932 0.0082 -0.8050
vn 0.5075 -0.0259 -0.8613
vn 0.7911 -0.0260 -0.6112
vn 0.8560 0.0026 -0.5169
vn 0.5932 0.0081 -0.8050
vn 0.8561 0.0026 -0.5169
vn 0.9571 0.0014 -0.2899
vn 0.9643 -0.0497 0.2601
vn 0.6927 -0.0679 0.7180
vn 0.9892 -0.0414 0.1406
vn 0.6928 -0.0679 0.7180
vn 0.3876 -0.0690 0.9192
vn 0.4117 -0.0601 0.9094
vn -0.5199 -0.1557 0.8399
vn -0.7691 -0.1831 0.6123
vn -0.5199 -0.1558 0.8399
vn -0.7691 -0.1832 0.6123
vn -0.9334 -0.1899 0.3044
vn -0.9128 -0.1867 -0.3632
vn -0.9104 -0.2030 -0.3604
vn -0.4860 -0.1564 -0.8599
vn -0.4946 -0.1355 -0.8585
vn 0.4643 -0.0470 -0.8844
vn 0.7679 -0.0388 -0.6393
vn 0.7680 -0.0388 -0.6393
vn 0.9883 -0.0338 -0.1485
vn 0.9976 -0.0404 0.0566
vn -0.9128 -0.1867 -0.3631
vt 0.577372 0.034131
vt 0.542213 0.046806
vt 0.542213 0.046806
vt 0.542213 0.046806
vt 0.542213 0.046806
vt 0.542213 0.046806
vt 0.542213 0.046806
vt 0.542213 0.046806
vt 0.542213 0.046806
vt 0.542213 0.046806
vt 0.542213 0.046806
vt 0.542213 0.034131
vt 0.542213 0.034131
vt 0.542213 0.046806
vt 0.542213 0.034131
vt 0.577372 0.034131
vt 0.577372 0.034131
vt 0.577372 0.034131
vt 0.577372 0.034131
vt 0.542213 0.046806
vt 0.542213 0.046806
vt 0.577372 0.046806
vt 0.577372 0.046806
vt 0.542213 0.046806
vt 0.542213 0.034131
vt 0.542213 0.034131
vt 0.542213 0.034131
vt 0.542213 0.046806
vt 0.542213 0.046806
vt 0.542213 0.046806
vt 0.542213 0.046806
vt 0.542213 0.046806
vt 0.577372 0.034131
s 0
usemtl acmat_2.005
f 7/7/1 6/6/2 5/5/3
f 5/5/4 8/8/5 7/7/1
f 6/6/2 10/10/6 9/9/7
f 9/9/7 5/5/8 6/6/9
f 12/12/10 10/10/11 11/11/12
f 11/11/13 13/13/14 12/12/10
f 13/13/15 11/11/13 14/14/16
f 14/14/16 15/15/17 13/13/15
f 18/18/18 17/17/19 16/16/20
f 16/16/20 19/19/21 18/18/18
f 22/22/22 21/21/23 20/20/24
f 20/20/24 23/23/25 22/22/22
f 25/25/26 20/20/27 24/24/28
f 24/24/28 26/26/29 25/25/30
f 26/26/31 24/24/28 7/7/1
f 7/7/1 27/27/32 26/26/31
f 29/29/33 28/28/34 6/6/9
f 6/6/2 7/7/1 29/29/35
f 28/28/36 30/30/37 10/10/38
f 10/10/6 6/6/2 28/28/34
f 30/30/39 31/31/40 11/11/12
f 11/11/12 10/10/11 30/30/41
f 31/31/42 32/32/43 14/14/16
f 14/14/16 11/11/13 31/31/40
f 33/33/44 1/1/45 16/16/20
f 21/21/23 2/2/46 3/3/47
f 3/3/47 20/20/24 21/21/23
f 20/20/27 3/3/48 4/4/49
f 4/4/49 24/24/28 20/20/27
f 4/4/50 29/29/51 24/24/28
f 24/24/28 29/29/52 7/7/1
f 33/33/53 16/16/20 17/17/19
