# Blender 3.5.1
# www.blender.org
mtllib low_arms_R.mtl
o KERORO
v -1.576735 -0.301709 0.230181
v -1.576836 -0.115049 0.271511
v -1.576635 0.057589 0.199791
v -1.666435 0.123440 0.019621
v -1.666435 0.123440 0.019621
v -1.666435 0.048601 -0.162569
v -1.666435 -0.131491 -0.238309
v -1.666435 -0.317812 -0.182859
v -1.666435 -0.398497 0.018401
v -1.666435 -0.317812 -0.182859
v -1.756136 -0.120261 0.283101
v -1.756136 -0.310717 0.237811
v -1.756235 0.056863 0.208371
v -1.756336 0.123543 0.019551
v -1.756235 0.048302 -0.169369
v -1.756136 -0.134087 -0.244189
v -1.756136 -0.322438 -0.186509
v -1.756136 -0.322438 -0.186509
v -1.756136 -0.404069 0.018481
v -1.756336 0.123543 0.019551
v -2.431036 -0.132378 0.358241
v -2.431036 -0.337513 0.290761
v -2.431135 0.064015 0.263461
v -1.756235 0.056863 0.208371
v -1.756136 -0.120261 0.283101
v -2.431036 -0.132378 0.358241
v -2.431236 0.132216 0.012451
v -2.431135 0.064015 0.263461
v -2.431236 0.132216 0.012451
v -2.431135 0.057979 -0.221049
v -2.431036 -0.142463 -0.304789
v -2.431036 -0.342499 -0.235599
v -2.431036 -0.429065 0.018551
v -2.431036 -0.342499 -0.235599
v -2.552235 -0.144495 0.383711
v -2.552235 -0.364309 0.321421
v -2.552336 0.071166 0.276471
v -2.552235 -0.144495 0.383711
v -2.552336 0.140890 0.005951
v -2.552336 0.140890 0.005951
v -2.552336 0.067656 -0.234729
v -2.552235 -0.150840 -0.320509
v -2.552235 -0.362559 -0.245499
v -2.552235 -0.454062 0.018721
v -2.552235 -0.362559 -0.245499
vn 0.0437 -0.2062 0.9775
vn 0.0396 0.1954 0.9799
vn 0.0732 -0.0748 0.9945
vn 0.0839 -0.2577 0.9626
vn 0.0308 0.3835 0.9230
vn 0.0454 0.3858 0.9215
vn 0.0054 0.9368 0.3497
vn 0.0047 0.9412 0.3379
vn 0.0134 0.9485 0.3166
vn 0.0140 0.9276 -0.3733
vn 0.0058 0.9242 -0.3819
vn 0.0342 0.7668 -0.6410
vn 0.0137 0.9263 -0.3766
vn 0.0259 0.9372 -0.3477
vn 0.0647 0.3815 -0.9221
vn 0.0379 0.6489 -0.7599
vn 0.0641 0.0543 -0.9965
vn 0.0739 0.0484 -0.9961
vn 0.0641 0.0542 -0.9965
vn 0.0596 -0.2873 -0.9560
vn 0.0738 -0.3034 -0.9500
vn 0.0640 -0.9979 0.0119
vn 0.0510 -0.9194 0.3899
vn 0.0542 -0.9260 0.3735
vn 0.0515 -0.9322 -0.3582
vn 0.0611 -0.9262 -0.3721
vn 0.0642 -0.9954 -0.0708
vn 0.0495 -0.9987 0.0117
vn 0.0133 0.9484 0.3167
vn 0.0047 0.9429 0.3330
vn 0.0640 -0.9979 0.0120
vn 0.0543 -0.9260 0.3736
vn 0.1415 -0.2826 0.9487
vn 0.2016 -0.2934 0.9345
vn 0.0856 0.4103 0.9079
vn 0.0791 0.3875 0.9185
vn 0.0976 0.4175 0.9034
vn 0.1186 0.4352 0.8925
vn 0.0856 0.4104 0.9079
vn 0.0201 0.9544 0.2977
vn 0.0201 0.9545 0.2977
vn 0.0316 0.9645 0.2621
vn 0.0766 0.9514 -0.2982
vn 0.0496 0.9816 -0.1844
vn 0.0259 0.9372 -0.3478
vn 0.1098 0.0337 -0.9934
vn 0.0959 0.3818 -0.9193
vn 0.0647 0.3814 -0.9221
vn 0.1177 -0.3269 -0.9377
vn 0.1098 0.0336 -0.9934
vn 0.0738 -0.3033 -0.9500
vn 0.1768 -0.9366 0.3027
vn 0.1134 -0.9924 -0.0468
vn 0.0542 -0.9260 0.3736
vn 0.1160 -0.9402 -0.3202
vn 0.3990 -0.2430 0.8842
vn 0.4325 -0.2458 0.8675
vn 0.1187 0.4351 0.8925
vn 0.2201 0.4703 0.8546
vn 0.2860 0.4268 0.8579
vn 0.1187 0.4352 0.8925
vn 0.0693 0.9644 0.2553
vn 0.0725 0.9647 0.2531
vn 0.1204 0.9116 0.3931
vn 0.0694 0.9644 0.2553
vn 0.0927 0.9514 -0.2938
vn 0.0766 0.9515 -0.2981
vn 0.1034 0.9547 -0.2789
vn 0.1622 0.3711 -0.9143
vn 0.1097 0.0337 -0.9934
vn 0.1634 -0.0901 -0.9824
vn 0.1633 -0.0901 -0.9825
vn 0.1178 -0.3269 -0.9377
vn 0.1615 -0.3296 -0.9302
vn 0.1369 -0.9881 -0.0700
vn 0.1767 -0.9366 0.3027
vn 0.3910 -0.8729 0.2917
vn 0.1040 -0.9404 -0.3239
vn 0.1134 -0.9925 -0.0467
vt 0.542213 0.046806
vt 0.542213 0.046806
vt 0.542213 0.046806
vt 0.542213 0.046806
vt 0.577372 0.046806
vt 0.577372 0.046806
vt 0.577372 0.046806
vt 0.577372 0.046806
vt 0.542213 0.046806
vt 0.542213 0.046806
vt 0.542213 0.046806
vt 0.542213 0.046806
vt 0.542213 0.046806
vt 0.577372 0.046806
vt 0.577372 0.046806
vt 0.577372 0.046806
vt 0.577372 0.046806
vt 0.542213 0.046806
vt 0.542213 0.046806
vt 0.542213 0.046806
vt 0.542213 0.046806
vt 0.542213 0.046806
vt 0.577372 0.046806
vt 0.577372 0.046806
vt 0.577372 0.046806
vt 0.577372 0.046806
vt 0.542213 0.046806
vt 0.542213 0.046806
vt 0.577372 0.046806
vt 0.577372 0.046806
vt 0.577372 0.046806
vt 0.577372 0.046806
vt 0.542213 0.046806
vt 0.542213 0.046806
vt 0.542213 0.046806
vt 0.542213 0.046806
vt 0.577372 0.046806
vt 0.577372 0.046806
vt 0.542213 0.046806
vt 0.577372 0.046806
vt 0.577372 0.046806
vt 0.577372 0.046806
vt 0.577372 0.046806
vt 0.542213 0.046806
vt 0.542213 0.046806
s 0
usemtl acmat_2.005
f 1/1/1 2/2/2 11/11/3
f 11/11/3 12/12/4 1/1/1
f 2/2/2 3/3/5 13/13/6
f 13/13/6 11/11/3 2/2/2
f 3/3/7 4/4/8 13/13/9
f 14/14/10 5/5/11 6/6/12
f 6/6/13 15/15/14 14/14/10
f 15/15/15 6/6/16 7/7/17
f 7/7/17 16/16/18 15/15/15
f 16/16/18 7/7/19 8/8/20
f 8/8/20 17/17/21 16/16/18
f 9/9/22 1/1/23 12/12/24
f 18/18/25 10/10/26 9/9/27
f 9/9/22 19/19/28 18/18/25
f 13/13/29 4/4/8 20/20/30
f 9/9/31 12/12/32 19/19/28
f 12/12/4 11/11/3 21/21/33
f 21/21/33 22/22/34 12/12/4
f 25/25/35 24/24/36 23/23/37
f 23/23/37 26/26/38 25/25/39
f 13/13/9 20/20/30 27/27/40
f 27/27/41 28/28/42 13/13/9
f 15/15/14 30/30/43 29/29/44
f 29/29/44 14/14/10 15/15/45
f 16/16/18 31/31/46 30/30/47
f 30/30/47 15/15/48 16/16/18
f 17/17/21 32/32/49 31/31/46
f 31/31/50 16/16/18 17/17/51
f 12/12/24 22/22/52 33/33/53
f 33/33/53 19/19/28 12/12/54
f 18/18/25 19/19/28 33/33/53
f 33/33/53 34/34/55 18/18/25
f 22/22/34 21/21/33 35/35/56
f 35/35/56 36/36/57 22/22/34
f 26/26/58 23/23/37 37/37/59
f 37/37/59 38/38/60 26/26/61
f 23/23/62 29/29/44 39/39/63
f 39/39/63 37/37/64 23/23/65
f 40/40/66 29/29/44 30/30/43
f 30/30/67 41/41/68 40/40/66
f 41/41/69 30/30/47 31/31/70
f 31/31/50 42/42/71 41/41/69
f 42/42/72 31/31/50 32/32/49
f 32/32/73 43/43/74 42/42/71
f 44/44/75 33/33/53 22/22/76
f 22/22/76 36/36/77 44/44/75
f 45/45/78 34/34/55 33/33/79
f 33/33/53 44/44/75 45/45/78
