# Blender 3.5.1
# www.blender.org
mtllib low_arms_L.mtl
o KERORO
v 1.590464 -0.301709 0.230181
v 1.590565 -0.115049 0.271511
v 1.590364 0.057589 0.199791
v 1.590464 -0.301709 0.230181
v 1.680164 0.123440 0.019621
v 1.680164 0.048601 -0.162569
v 1.680164 -0.131491 -0.238309
v 1.680164 -0.317812 -0.182859
v 1.680164 -0.398497 0.018401
v 1.680164 -0.317812 -0.182859
v 1.769865 -0.120261 0.283101
v 1.769865 -0.310717 0.237811
v 1.769964 0.056863 0.208371
v 1.769964 0.048302 -0.169369
v 1.770065 0.123543 0.019551
v 1.769865 -0.134087 -0.244189
v 1.769865 -0.322438 -0.186509
v 1.769865 -0.404069 0.018481
v 1.769865 -0.322438 -0.186509
v 2.444765 -0.132378 0.358241
v 2.444765 -0.337513 0.290761
v 2.444864 0.064015 0.263461
v 2.444765 -0.132378 0.358241
v 2.444965 0.132216 0.012451
v 2.444864 0.064015 0.263461
v 2.444965 0.132216 0.012451
v 2.444864 0.057979 -0.221049
v 2.444765 -0.142463 -0.304789
v 2.444765 -0.342499 -0.235599
v 2.444765 -0.429065 0.018551
v 2.444765 -0.337513 0.290761
v 2.565964 -0.144495 0.383711
v 2.565865 -0.364308 0.321421
v 2.566065 0.071166 0.276471
v 2.565964 -0.144495 0.383711
v 2.566065 0.140890 0.005951
v 2.566065 0.067656 -0.234729
v 2.565964 -0.150840 -0.320509
v 2.566065 0.067656 -0.234729
v 2.565964 -0.362559 -0.245499
v 2.565865 -0.364308 0.321421
v 2.565964 -0.454062 0.018721
vn -0.0437 -0.2062 0.9775
vn -0.0839 -0.2577 0.9626
vn -0.0796 0.0935 0.9924
vn -0.0396 0.1954 0.9799
vn -0.0797 0.0935 0.9924
vn -0.0566 0.3864 0.9206
vn -0.0308 0.3835 0.9230
vn -0.0054 0.9369 0.3497
vn -0.0134 0.9485 0.3166
vn -0.0056 0.9997 -0.0236
vn -0.0110 0.9953 -0.0967
vn -0.0259 0.9372 -0.3477
vn -0.0137 0.9263 -0.3766
vn -0.0342 0.7667 -0.6411
vn -0.0110 0.9952 -0.0968
vn -0.0647 0.3814 -0.9221
vn -0.0739 0.0484 -0.9961
vn -0.0641 0.0542 -0.9965
vn -0.0642 0.0543 -0.9965
vn -0.0379 0.6489 -0.7599
vn -0.0647 0.3815 -0.9221
vn -0.0738 -0.3034 -0.9500
vn -0.0596 -0.2873 -0.9560
vn -0.0596 -0.2872 -0.9560
vn -0.0641 0.0543 -0.9965
vn -0.0640 -0.9979 0.0119
vn -0.0542 -0.9260 0.3735
vn -0.0510 -0.9194 0.3899
vn -0.0515 -0.9322 -0.3582
vn -0.0495 -0.9987 0.0117
vn -0.0642 -0.9954 -0.0708
vn -0.0612 -0.9262 -0.3721
vn -0.0133 0.9484 0.3167
vn -0.0056 0.9997 -0.0235
vn -0.2016 -0.2934 0.9345
vn -0.1415 -0.2826 0.9487
vn -0.1186 0.4352 0.8925
vn -0.0976 0.4175 0.9034
vn -0.0316 0.9645 0.2621
vn -0.0201 0.9545 0.2977
vn -0.0201 0.9544 0.2977
vn -0.0259 0.9372 -0.3478
vn -0.0496 0.9816 -0.1844
vn -0.0766 0.9514 -0.2982
vn -0.0959 0.3818 -0.9193
vn -0.1098 0.0337 -0.9934
vn -0.0738 -0.3033 -0.9500
vn -0.1098 0.0336 -0.9934
vn -0.1177 -0.3269 -0.9377
vn -0.0542 -0.9260 0.3736
vn -0.1134 -0.9924 -0.0468
vn -0.1768 -0.9366 0.3027
vn -0.1160 -0.9402 -0.3202
vn -0.4325 -0.2458 0.8675
vn -0.3990 -0.2430 0.8842
vn -0.1187 0.4352 0.8925
vn -0.2860 0.4268 0.8579
vn -0.2202 0.4703 0.8546
vn -0.2201 0.4703 0.8546
vn -0.1187 0.4351 0.8925
vn -0.0693 0.9644 0.2553
vn -0.1204 0.9116 0.3931
vn -0.0859 0.9961 -0.0211
vn -0.0858 0.9961 -0.0211
vn -0.0493 0.9816 -0.1844
vn -0.0858 0.9961 -0.0212
vn -0.1034 0.9547 -0.2789
vn -0.0766 0.9515 -0.2981
vn -0.1622 0.3711 -0.9143
vn -0.1634 -0.0901 -0.9824
vn -0.1633 -0.0901 -0.9824
vn -0.1615 -0.3296 -0.9302
vn -0.1178 -0.3269 -0.9377
vn -0.1633 -0.0901 -0.9825
vn -0.1369 -0.9881 -0.0700
vn -0.3910 -0.8729 0.2917
vn -0.1768 -0.9365 0.3027
vn -0.1767 -0.9366 0.3027
vn -0.1039 -0.9404 -0.3239
vn -0.1040 -0.9404 -0.3239
vt 0.542213 0.046806
vt 0.542213 0.046806
vt 0.542213 0.046806
vt 0.577372 0.046806
vt 0.542213 0.046806
vt 0.542213 0.046806
vt 0.542213 0.046806
vt 0.542213 0.046806
vt 0.577372 0.046806
vt 0.577372 0.046806
vt 0.542213 0.046806
vt 0.577372 0.046806
vt 0.542213 0.046806
vt 0.542213 0.046806
vt 0.542213 0.046806
vt 0.542213 0.046806
vt 0.542213 0.046806
vt 0.577372 0.046806
vt 0.577372 0.046806
vt 0.577372 0.046806
vt 0.577372 0.046806
vt 0.542213 0.046806
vt 0.542213 0.046806
vt 0.577372 0.046806
vt 0.577372 0.046806
vt 0.542213 0.046806
vt 0.542213 0.046806
vt 0.542213 0.046806
vt 0.542213 0.046806
vt 0.542213 0.046806
vt 0.542213 0.046806
vt 0.577372 0.046806
vt 0.577372 0.046806
vt 0.542213 0.046806
vt 0.542213 0.046806
vt 0.542213 0.046806
vt 0.542213 0.034131
vt 0.542213 0.046806
vt 0.542213 0.046806
vt 0.542213 0.046806
vt 0.542213 0.046806
vt 0.542213 0.046806
s 0
usemtl acmat_2.002
f 1/1/1 12/12/2 11/11/3
f 11/11/3 2/2/4 1/1/1
f 2/2/4 11/11/5 13/13/6
f 13/13/6 3/3/7 2/2/4
f 3/3/8 13/13/9 5/5/10
f 15/15/11 14/14/12 6/6/13
f 6/6/14 5/5/10 15/15/15
f 14/14/16 16/16/17 7/7/18
f 7/7/19 6/6/20 14/14/21
f 16/16/17 17/17/22 8/8/23
f 8/8/24 7/7/25 16/16/17
f 9/9/26 12/12/27 4/4/28
f 19/19/29 18/18/30 9/9/26
f 9/9/31 10/10/32 19/19/29
f 13/13/33 15/15/11 5/5/34
f 9/9/26 18/18/30 12/12/27
f 12/12/2 21/21/35 20/20/36
f 20/20/36 11/11/3 12/12/2
f 11/11/5 23/23/37 22/22/38
f 22/22/38 13/13/6 11/11/3
f 13/13/9 25/25/39 24/24/40
f 24/24/41 15/15/11 13/13/9
f 14/14/42 15/15/11 26/26/43
f 26/26/43 27/27/44 14/14/12
f 16/16/17 14/14/16 27/27/45
f 27/27/45 28/28/46 16/16/17
f 17/17/47 16/16/17 28/28/48
f 28/28/46 29/29/49 17/17/22
f 12/12/50 18/18/30 30/30/51
f 30/30/51 31/31/52 12/12/27
f 19/19/29 29/29/53 30/30/51
f 30/30/51 18/18/30 19/19/29
f 21/21/35 33/33/54 32/32/55
f 32/32/55 20/20/36 21/21/35
f 23/23/56 35/35/57 34/34/58
f 34/34/59 22/22/38 23/23/60
f 22/22/61 34/34/62 36/36/63
f 36/36/64 26/26/65 22/22/61
f 36/36/66 37/37/67 27/27/68
f 27/27/44 26/26/43 36/36/64
f 39/39/69 38/38/70 28/28/48
f 28/28/48 27/27/45 39/39/69
f 38/38/71 40/40/72 29/29/73
f 29/29/49 28/28/48 38/38/74
f 42/42/75 41/41/76 31/31/77
f 31/31/78 30/30/51 42/42/75
f 40/40/79 42/42/75 30/30/51
f 30/30/51 29/29/53 40/40/80
