# Blender 3.5.1
# www.blender.org
mtllib up_arms_L.mtl
o KERORO
v 0.661564 0.192259 0.003781
v 0.661564 0.192259 0.003781
v 0.641665 0.111878 -0.181439
v 0.810165 0.164645 0.014741
v 0.797464 0.085507 0.176911
v 0.643965 0.108002 0.186641
v 0.780565 -0.083607 0.246671
v 0.664564 -0.071988 0.253541
v 0.794565 0.092671 -0.145769
v 0.663265 -0.068933 -0.233789
v 0.780565 -0.084635 -0.209579
v 0.643965 0.108002 0.186641
v 0.664564 -0.071988 0.253541
v 0.702364 -0.304391 -0.213669
v 0.895664 -0.093627 0.251671
v 0.780565 -0.271376 0.220431
v 0.946365 0.056332 0.187001
v 0.958565 0.122538 0.023611
v 0.945465 0.051256 -0.131579
v 0.912464 -0.090432 -0.200079
v 0.780565 -0.281769 -0.162269
v 0.737364 -0.310424 0.225011
v 0.787865 -0.378566 0.020191
v 0.812965 -0.354144 0.020611
v 0.780565 -0.281769 -0.162269
v 0.702364 -0.304391 -0.213669
v 0.737364 -0.310424 0.225011
v 0.780565 -0.271376 0.220431
v 0.737364 -0.310424 0.225011
v 0.787865 -0.378566 0.020191
v 0.664564 -0.071988 0.253541
v 1.590464 -0.301709 0.230181
v 1.590565 -0.115049 0.271511
v 1.590364 0.057589 0.199791
v 1.590364 0.123337 0.019691
v 1.590364 0.048902 -0.158359
v 1.590565 -0.128895 -0.232429
v 1.590464 -0.313187 -0.179199
v 1.590464 -0.301709 0.230181
v 1.590464 -0.392925 0.018311
v 1.590464 -0.313187 -0.179199
v 1.680164 0.123440 0.019621
v 1.680164 0.048601 -0.162569
v 1.680164 -0.131491 -0.238309
v 1.680164 -0.317812 -0.182859
v 1.680164 -0.398497 0.018401
v 1.680164 -0.317812 -0.182859
v 0.787865 -0.378566 0.020191
vn 0.1431 0.7574 0.6370
vn 0.0905 0.5787 0.8105
vn 0.1669 0.8905 0.4233
vn 0.1670 0.8905 0.4233
vn 0.1349 0.8949 0.4253
vn 0.1431 0.7574 0.6371
vn 0.1064 0.1349 0.9851
vn 0.0194 0.1237 0.9921
vn 0.2381 0.8779 -0.4155
vn 0.2438 0.6586 -0.7119
vn 0.3496 0.6944 -0.6290
vn 0.3150 0.7745 -0.5486
vn 0.3192 0.8593 -0.3996
vn 0.2382 0.8778 -0.4156
vn 0.2218 0.5500 -0.8052
vn 0.1411 0.0475 -0.9889
vn 0.4097 0.1542 -0.8991
vn 0.3889 0.4623 -0.7969
vn 0.2173 0.4615 -0.8601
vn 0.0344 -0.1269 0.9913
vn -0.0198 0.1143 0.9932
vn -0.0198 0.1144 0.9932
vn 0.0248 0.6408 0.7673
vn 0.1225 0.9076 0.4016
vn 0.0748 0.9267 0.3684
vn 0.0624 0.6989 0.7125
vn 0.0852 0.9075 -0.4113
vn 0.1203 0.6912 -0.7126
vn 0.1514 0.7424 -0.6527
vn 0.2493 0.5907 -0.7674
vn 0.2381 0.8778 -0.4156
vn 0.0400 0.0838 -0.9957
vn 0.1901 0.3340 -0.9232
vn 0.1202 0.6912 -0.7125
vn 0.1921 -0.1599 -0.9683
vn 0.1652 -0.0673 0.9840
vn 0.3874 -0.8268 -0.4078
vn 0.3444 -0.9150 -0.2101
vn 0.6616 -0.7498 -0.0106
vn 0.5752 -0.7130 -0.4010
vn 0.4968 -0.7583 -0.4221
vn 0.3874 -0.8269 -0.4077
vn 0.7413 0.1711 -0.6490
vn 0.4414 -0.8015 0.4034
vn 0.6421 -0.6659 0.3799
vn 0.6893 -0.7115 0.1367
vn 0.3466 -0.9112 0.2228
vn 0.4415 -0.8015 0.4034
vn 0.4097 0.1543 -0.8991
vn -0.0437 -0.2062 0.9775
vn -0.0395 0.1954 0.9799
vn -0.0198 0.1143 0.9933
vn 0.0248 0.6407 0.7674
vn -0.0396 0.1954 0.9799
vn -0.0308 0.3835 0.9230
vn 0.0328 0.5407 0.8405
vn 0.0584 0.9801 0.1895
vn 0.0788 0.7531 0.6531
vn -0.0054 0.9368 0.3497
vn -0.0013 0.9997 -0.0230
vn 0.0446 0.9969 0.0642
vn 0.0533 0.9925 -0.1098
vn -0.0200 0.7932 -0.6086
vn 0.1202 0.6913 -0.7125
vn 0.0678 0.9697 -0.2346
vn 0.0844 0.6408 -0.7630
vn -0.0210 0.7577 -0.6523
vn -0.0490 0.1830 -0.9819
vn 0.0400 0.0837 -0.9957
vn -0.0490 0.1831 -0.9819
vn -0.0534 -0.2538 -0.9658
vn -0.0534 -0.2539 -0.9658
vn 0.1440 -0.9644 0.2217
vn -0.0510 -0.9173 0.3949
vn -0.0510 -0.9194 0.3899
vn 0.4415 -0.8014 0.4034
vn 0.1058 -0.9899 0.0945
vn 0.1077 -0.9912 -0.0771
vn -0.0513 -0.9278 -0.3695
vn -0.0558 -0.9261 -0.3730
vn 0.1457 -0.9676 -0.2063
vn -0.0056 0.9997 -0.0236
vn -0.0342 0.7668 -0.6410
vn -0.0084 0.9199 -0.3920
vn -0.0379 0.6489 -0.7599
vn -0.0641 0.0543 -0.9965
vn -0.0489 0.1830 -0.9819
vn -0.0532 0.3861 -0.9209
vn -0.0641 0.0542 -0.9965
vn -0.0596 -0.2873 -0.9560
vn -0.0509 -0.9173 0.3949
vn -0.0622 -0.9748 0.2143
vn -0.0609 -0.9262 -0.3722
vn -0.0642 -0.9954 -0.0708
vn -0.0559 -0.9261 -0.3730
vn -0.0611 -0.9261 -0.3722
vt 0.542213 0.046806
vt 0.542213 0.046806
vt 0.542213 0.046806
vt 0.542213 0.046806
vt 0.542213 0.046806
vt 0.542213 0.046806
vt 0.542213 0.046806
vt 0.542213 0.046806
vt 0.542213 0.046806
vt 0.542213 0.046806
vt 0.542213 0.046806
vt 0.542213 0.046806
vt 0.542213 0.046806
vt 0.542213 0.046806
vt 0.542213 0.046806
vt 0.542213 0.046806
vt 0.542213 0.046806
vt 0.542213 0.046806
vt 0.542213 0.046806
vt 0.577372 0.046806
vt 0.577372 0.046806
vt 0.577372 0.046806
vt 0.577372 0.046806
vt 0.577372 0.046806
vt 0.577372 0.046806
vt 0.542213 0.046806
vt 0.542213 0.046806
vt 0.542213 0.046806
vt 0.542213 0.046806
vt 0.542213 0.046806
vt 0.542213 0.046806
vt 0.542213 0.046806
vt 0.577372 0.046806
vt 0.577372 0.046806
vt 0.577372 0.046806
vt 0.542213 0.046806
vt 0.542213 0.046806
vt 0.542213 0.046806
vt 0.542213 0.046806
vt 0.577372 0.046806
vt 0.577372 0.046806
s 0
usemtl acmat_2.002
f 6/5/1 5/4/2 4/3/3
f 4/3/4 2/1/5 6/5/6
f 8/7/7 7/6/8 5/4/2
f 5/4/2 6/5/6 8/7/7
f 4/3/9 9/8/10 3/2/11
f 3/2/12 2/1/13 4/3/14
f 9/8/15 11/10/16 10/9/17
f 10/9/17 3/2/18 9/8/19
f 16/13/20 15/12/21 7/6/8
f 15/12/22 17/14/23 5/4/2
f 5/4/2 7/6/8 15/12/22
f 17/14/24 18/15/25 4/3/3
f 4/3/4 5/4/2 17/14/26
f 4/3/9 18/15/27 19/16/28
f 19/16/29 9/8/30 4/3/31
f 20/17/32 11/10/16 9/8/33
f 9/8/15 19/16/34 20/17/32
f 20/17/32 21/18/35 11/10/16
f 8/7/7 22/19/36 16/13/20
f 25/22/37 24/21/38 23/20/39
f 23/20/40 26/23/41 25/22/42
f 14/11/43 10/9/17 21/18/35
f 28/25/44 27/24/45 23/20/46
f 23/20/46 24/21/47 28/25/48
f 8/7/7 16/13/20 7/6/8
f 21/18/35 10/9/49 11/10/16
f 15/12/22 16/13/20 32/26/50
f 32/26/50 33/27/51 15/12/52
f 17/14/53 15/12/22 33/27/54
f 33/27/51 34/28/55 17/14/56
f 18/15/57 17/14/58 34/28/59
f 34/28/59 35/29/60 18/15/61
f 18/15/62 35/29/60 36/30/63
f 36/30/63 19/16/64 18/15/65
f 19/16/66 36/30/67 37/31/68
f 37/31/68 20/17/69 19/16/28
f 20/17/32 37/31/70 38/32/71
f 38/32/72 21/18/35 20/17/69
f 24/21/73 40/34/74 39/33/75
f 39/33/75 28/25/76 24/21/77
f 24/21/78 25/22/42 41/35/79
f 41/35/79 40/34/80 24/21/81
f 34/28/59 42/36/82 35/29/60
f 42/36/82 43/37/83 36/30/84
f 36/30/63 35/29/60 42/36/82
f 43/37/85 44/38/86 37/31/87
f 37/31/70 36/30/67 43/37/88
f 44/38/89 45/39/90 38/32/72
f 38/32/71 37/31/87 44/38/86
f 40/34/91 46/40/92 39/33/75
f 47/41/93 46/40/94 40/34/95
f 40/34/80 41/35/79 47/41/96
l 12 13
l 29 30
l 29 31
l 1 12
l 14 48
