# Blender 3.5.1
# www.blender.org
mtllib up_legs_L.mtl
o KERORO
v 0.278864 -2.481397 0.267861
v 0.149164 -2.519857 -0.023679
v 0.252665 -2.462187 -0.324629
v 0.556765 -2.337167 -0.476249
v 0.616165 -2.353537 0.397171
v 0.836365 -2.275836 0.260191
v 0.928265 -2.242997 -0.041799
v 0.783264 -2.763667 -0.050169
v 0.876665 -2.417147 -0.041649
v 0.796764 -2.445887 -0.299759
v 0.709665 -2.763667 -0.268379
v 0.709665 -2.763667 -0.268379
v 0.534164 -2.518687 -0.431129
v 0.488165 -2.763667 -0.393639
v 0.250364 -2.596217 -0.304369
v 0.252264 -2.763667 -0.288499
v 0.534164 -2.518687 -0.431129
v 0.157164 -2.634787 -0.022439
v 0.279665 -2.601696 0.255741
v 0.278364 -2.763667 0.234621
v 0.163364 -2.763667 -0.019329
v 0.279665 -2.601696 0.255741
v 0.519764 -2.763667 0.313991
v 0.278364 -2.763667 0.234621
v 0.710464 -2.763667 0.196281
v 0.572165 -2.497617 0.357201
v 0.792364 -2.440977 0.231291
v 0.876665 -2.417147 -0.041649
v 0.928265 -2.242997 -0.041799
v 0.836565 -2.266337 -0.328679
v 0.556765 -2.337167 -0.476249
v 0.157164 -2.634787 -0.022439
v 0.149164 -2.519857 -0.023679
v 0.278864 -2.481397 0.267861
v 0.275965 -3.123597 0.189771
v 0.173365 -3.160167 -0.019489
v 0.471764 -3.095857 0.268011
v 0.275965 -3.123597 0.189771
v 0.636965 -3.125287 0.166031
v 0.699465 -3.161937 -0.044139
v 0.614765 -3.193627 -0.239119
v 0.699465 -3.161937 -0.044139
v 0.426765 -3.193107 -0.345409
v 0.614765 -3.193627 -0.239119
v 0.257164 -3.193007 -0.249289
v 0.173365 -3.160167 -0.019489
v 0.163364 -2.763667 -0.019329
v 0.274765 -3.263667 0.174151
v 0.178364 -3.263667 -0.023659
v 0.454165 -3.263657 0.252491
v 0.471764 -3.095857 0.268011
v 0.613264 -3.263647 0.154891
v 0.454165 -3.263657 0.252491
v 0.677265 -3.263657 -0.044369
v 0.677265 -3.263657 -0.044369
v 0.178364 -3.263667 -0.023659
v 0.616165 -2.353537 0.397171
v 0.572165 -2.497617 0.357201
vn 0.8273 -0.2674 -0.4940
vn 0.9302 -0.2601 -0.2588
vn 0.9681 -0.2505 -0.0114
vn 0.9681 -0.2505 -0.0113
vn 0.9157 -0.2350 -0.3260
vn 0.4884 -0.2367 -0.8399
vn 0.4834 -0.2008 -0.8521
vn 0.4837 -0.1839 -0.8557
vn -0.4013 -0.0673 -0.9135
vn -0.4349 -0.0734 -0.8975
vn -0.3891 -0.1178 -0.9136
vn -0.3759 -0.1251 -0.9182
vn -0.9109 -0.0415 0.4105
vn -0.9112 -0.0505 0.4089
vn -0.9113 -0.0459 0.4092
vn -0.9113 -0.0459 0.4093
vn -0.9057 -0.0338 0.4226
vn -0.9109 -0.0415 0.4106
vn -0.3254 -0.1066 0.9395
vn -0.3056 -0.1009 0.9468
vn -0.3002 -0.1048 0.9481
vn 0.5242 -0.2777 0.8050
vn 0.5066 -0.1997 0.8388
vn 0.7705 -0.2314 0.5939
vn 0.7772 -0.2988 0.5538
vn 0.9262 -0.2742 0.2589
vn 0.9680 -0.2505 -0.0114
vn 0.7428 -0.3583 -0.5655
vn 0.9133 -0.3129 -0.2607
vn 0.9303 -0.2601 -0.2588
vn 0.4857 -0.4970 -0.7191
vn 0.7429 -0.3583 -0.5655
vn 0.7428 -0.3584 -0.5655
vn -0.3990 -0.1304 -0.9077
vn -0.3791 -0.1566 -0.9120
vn -0.9439 -0.0512 -0.3263
vn -0.9431 -0.0338 -0.3308
vn -0.9450 -0.0477 -0.3237
vn -0.9449 -0.0477 -0.3238
vn -0.9466 -0.0541 -0.3179
vn -0.9111 -0.0505 0.4090
vn -0.9103 -0.0475 0.4112
vn -0.9107 -0.0531 0.4097
vn 0.8076 -0.4214 0.4126
vn 0.5210 -0.5441 0.6577
vn 0.5209 -0.5441 0.6577
vn 0.9066 -0.3483 0.2383
vn 0.9261 -0.2743 0.2589
vn -0.9057 -0.0340 0.4226
vn -0.8960 -0.0421 0.4421
vn -0.7394 -0.0548 0.6710
vn -0.7394 -0.0547 0.6710
vn -0.3548 -0.1133 0.9281
vn -0.3331 -0.0997 0.9376
vn 0.5030 -0.1585 0.8496
vn 0.7629 -0.1988 0.6153
vn 0.7628 -0.1988 0.6153
vn 0.7705 -0.2315 0.5939
vn 0.7629 -0.1988 0.6152
vn 0.9317 -0.2036 0.3007
vn 0.9155 -0.2074 -0.3447
vn 0.9104 -0.2030 -0.3604
vn 0.9157 -0.2350 -0.3259
vn 0.9680 -0.2505 -0.0113
vn 0.9155 -0.2074 -0.3446
vn 0.4860 -0.1564 -0.8599
vn 0.4946 -0.1355 -0.8585
vn 0.4860 -0.1563 -0.8599
vn -0.4643 -0.0470 -0.8844
vn -0.7679 -0.0388 -0.6393
vn -0.7869 -0.0586 -0.6142
vn -0.4643 -0.0470 -0.8845
vn -0.8923 -0.0509 -0.4485
vn -0.9436 -0.0325 -0.3296
vn -0.9436 -0.0324 -0.3296
vn -0.9488 -0.0384 -0.3134
vn -0.8994 -0.0491 0.4343
vn -0.6928 -0.0679 0.7180
vn -0.6927 -0.0679 0.7180
vn -0.3876 -0.0690 0.9192
vn -0.3877 -0.0690 0.9192
vn -0.3648 -0.0477 0.9299
vn 0.5199 -0.1558 0.8399
vn 0.7691 -0.1831 0.6123
vn 0.7692 -0.1831 0.6123
vn 0.9334 -0.1899 0.3044
vn 0.9156 -0.2073 -0.3446
vn 0.9128 -0.1867 -0.3631
vn -0.7680 -0.0388 -0.6393
vn -0.9437 -0.0256 -0.3298
vn -0.9488 -0.0385 -0.3135
vn -0.9466 -0.0542 -0.3179
vn -0.2955 -0.1342 0.9459
vn -0.2956 -0.1215 0.9476
vn -0.2957 -0.1704 0.9399
vn -0.2955 -0.1341 0.9459
vt 0.542213 0.046806
vt 0.542213 0.046806
vt 0.542213 0.046806
vt 0.542213 0.034131
vt 0.577372 0.046806
vt 0.577372 0.046806
vt 0.577372 0.034131
vt 0.542213 0.034131
vt 0.542213 0.034131
vt 0.542213 0.034131
vt 0.542213 0.034131
vt 0.542213 0.046806
vt 0.542213 0.034131
vt 0.542213 0.046806
vt 0.542213 0.046806
vt 0.542213 0.046806
vt 0.542213 0.046806
vt 0.577372 0.046806
vt 0.577372 0.046806
vt 0.577372 0.046806
vt 0.577372 0.046806
vt 0.542213 0.046806
vt 0.542213 0.046806
vt 0.542213 0.046806
vt 0.542213 0.046806
vt 0.577372 0.046806
vt 0.577372 0.046806
vt 0.577372 0.034131
vt 0.542213 0.034131
vt 0.542213 0.034131
vt 0.542213 0.046806
vt 0.542213 0.046806
vt 0.577372 0.046806
vt 0.577372 0.046806
vt 0.577372 0.046806
vt 0.577372 0.046806
vt 0.542213 0.046806
vt 0.542213 0.046806
vt 0.542213 0.046806
vt 0.542213 0.046806
vt 0.542213 0.034131
vt 0.542213 0.034131
vt 0.542213 0.046806
vt 0.542213 0.046806
vt 0.542213 0.046806
vt 0.542213 0.046806
vt 0.542213 0.046806
vt 0.577372 0.046806
vt 0.577372 0.046806
vt 0.577372 0.046806
vt 0.577372 0.046806
vt 0.542213 0.046806
vt 0.542213 0.046806
vt 0.542213 0.046806
vt 0.542213 0.034131
vt 0.542213 0.046806
vt 0.542213 0.046806
vt 0.542213 0.046806
s 0
usemtl acmat_2.002
f 10/10/1 9/9/2 8/8/3
f 8/8/4 11/11/5 10/10/1
f 13/13/6 10/10/1 12/12/7
f 12/12/7 14/14/8 13/13/6
f 14/14/9 16/16/10 15/15/11
f 15/15/11 17/17/12 14/14/9
f 20/20/13 19/19/14 18/18/15
f 18/18/16 21/21/17 20/20/18
f 24/24/19 23/23/20 22/22/21
f 26/26/22 23/23/23 25/25/24
f 25/25/24 27/27/25 26/26/22
f 8/8/3 28/28/26 27/27/25
f 27/27/25 25/25/24 8/8/27
f 10/10/1 30/30/28 29/29/29
f 29/29/29 9/9/30 10/10/1
f 13/13/6 4/4/31 30/30/32
f 30/30/33 10/10/1 13/13/6
f 15/15/11 3/3/34 31/31/35
f 31/31/35 17/17/12 15/15/11
f 2/2/36 3/3/37 15/15/38
f 15/15/39 32/32/40 2/2/36
f 19/19/41 34/34/42 33/33/43
f 33/33/43 18/18/16 19/19/14
f 27/27/25 6/6/44 5/5/45
f 5/5/46 26/26/22 27/27/25
f 28/28/26 7/7/47 6/6/44
f 6/6/44 27/27/25 28/28/48
f 21/21/49 36/36/50 35/35/51
f 35/35/52 20/20/18 21/21/49
f 24/24/19 38/38/53 37/37/54
f 37/37/54 23/23/20 24/24/19
f 23/23/23 37/37/55 39/39/56
f 39/39/57 25/25/58 23/23/23
f 25/25/24 39/39/59 40/40/60
f 40/40/60 8/8/4 25/25/24
f 42/42/61 41/41/62 11/11/63
f 11/11/5 8/8/64 42/42/65
f 44/44/66 43/43/67 14/14/8
f 14/14/8 12/12/7 44/44/68
f 43/43/69 45/45/70 16/16/71
f 16/16/10 14/14/9 43/43/72
f 16/16/73 45/45/70 46/46/74
f 46/46/75 47/47/76 16/16/73
f 36/36/50 49/49/77 48/48/78
f 48/48/79 35/35/52 36/36/50
f 35/35/52 48/48/79 50/50/80
f 50/50/81 51/51/82 35/35/52
f 37/37/55 53/53/83 52/52/84
f 52/52/85 39/39/56 37/37/55
f 39/39/57 52/52/84 54/54/86
f 54/54/86 40/40/60 39/39/56
f 42/42/87 55/55/88 41/41/62
f 45/45/89 56/56/90 46/46/75
f 16/16/73 47/47/91 32/32/92
f 32/32/40 15/15/38 16/16/73
f 1/1/93 58/58/94 57/57/95
f 22/22/21 23/23/20 58/58/94
f 1/1/96 22/22/21 58/58/94
l 1 2
l 1 5
l 3 4
